<svg xmlns="http://www.w3.org/2000/svg" version="1.1" xmlns:xlink="http://www.w3.org/1999/xlink" xmlns:svgjs="http://svgjs.dev/svgjs" width="1000" height="444" viewBox="0 0 1000 444"><g transform="matrix(1,0,0,1,-0.6060606060606233,-0.5296892915645799)"><svg viewBox="0 0 396 176" data-background-color="#d6d08e" preserveAspectRatio="xMidYMid meet" height="444" width="1000" xmlns="http://www.w3.org/2000/svg" xmlns:xlink="http://www.w3.org/1999/xlink"><g id="tight-bounds" transform="matrix(1,0,0,1,0.2400000000000091,0.2099669263859596)"><svg viewBox="0 0 395.52 175.58006614722808" height="175.58006614722808" width="395.52"><g><svg viewBox="0 0 397.4975999999999 176.4579664779642" height="175.58006614722808" width="395.52"><g transform="matrix(1,0,0,1,0,103.26784339738106)"><svg viewBox="0 0 397.4975999999999 73.19012308058313" height="73.19012308058313" width="397.4975999999999"><g id="textblocktransform"><svg viewBox="0 0 397.4975999999999 73.19012308058313" height="73.19012308058313" width="397.4975999999999" id="textblock"><g><rect width="397.4975999999999" height="3.586842850085261" x="0" y="43.99914419686158" fill="#59b7dc" opacity="1" stroke-width="0" stroke="transparent" fill-opacity="1" class="rect-o$-0" data-fill-palette-color="primary" rx="1%" id="o$-0" data-palette-color="#59b7dc"></rect></g><g transform="matrix(1,0,0,1,0.9887999999999693,0)"><svg viewBox="0 0 395.52 39.77380576089727" height="39.77380576089727" width="395.52"><g transform="matrix(1,0,0,1,0,0)"><svg width="395.52" viewBox="1.75 -38.6 392.28 39.45" height="39.77380576089727" data-palette-color="#59b7dc"><path d="M21.7 0.85Q11.7 0.85 6.73-4.4 1.75-9.65 1.75-18.85L1.75-18.85Q1.75-24.45 4-28.93 6.25-33.4 10.75-36 15.25-38.6 21.7-38.6L21.7-38.6Q24.35-38.6 26.43-38.18 28.5-37.75 30.9-36.75L30.9-36.75 30.9-28.95Q26.65-31 21.95-31L21.95-31Q18.7-31 16.18-29.43 13.65-27.85 12.25-25.1 10.85-22.35 10.85-18.9L10.85-18.9Q10.85-13.4 13.73-10.08 16.6-6.75 21.7-6.75L21.7-6.75Q24.1-6.75 26.4-7.48 28.7-8.2 31.25-9.55L31.25-9.55 33.9-2.2Q31-0.7 27.8 0.08 24.6 0.85 21.7 0.85L21.7 0.85ZM56.9 0.85Q50.6 0.85 46.2-1.73 41.8-4.3 39.6-8.78 37.4-13.25 37.4-18.9L37.4-18.9Q37.4-24.45 39.6-28.9 41.8-33.35 46.2-35.98 50.6-38.6 56.9-38.6L56.9-38.6Q63.1-38.6 67.5-35.98 71.9-33.35 74.12-28.88 76.35-24.4 76.35-18.9L76.35-18.9Q76.35-13.25 74.12-8.78 71.9-4.3 67.52-1.73 63.15 0.85 56.9 0.85L56.9 0.85ZM56.9-6.75Q61.75-6.75 64.45-10.15 67.15-13.55 67.15-19.05L67.15-19.05Q67.15-22.5 65.95-25.2 64.75-27.9 62.42-29.45 60.1-31 56.9-31L56.9-31Q51.95-31 49.27-27.65 46.6-24.3 46.6-18.9L46.6-18.9Q46.6-13.4 49.25-10.08 51.9-6.75 56.9-6.75L56.9-6.75ZM106.05-37.9L115.05-37.9 115.05 0 104.69 0 91.09-23.3 91.09 0 82.09 0 82.09-37.9 92.44-37.9 106.05-14.6 106.05-37.9ZM150.74-37.9L150.74-30.2 140.39-30.2 140.39 0 131.39 0 131.39-30.2 121.04-30.2 121.04-37.9 150.74-37.9ZM156.74 0L156.74-37.9 165.74-37.9 165.74 0 156.74 0ZM197.69-37.9L206.69-37.9 206.69 0 196.34 0 182.74-23.3 182.74 0 173.74 0 173.74-37.9 184.09-37.9 197.69-14.6 197.69-37.9ZM231.19 0.85Q222.94 0.85 218.81-3.25 214.69-7.35 214.69-14.9L214.69-14.9 214.69-37.9 223.69-37.9 223.69-14.9Q223.69-10.85 225.56-8.8 227.44-6.75 231.19-6.75L231.19-6.75Q234.94-6.75 236.81-8.8 238.69-10.85 238.69-14.9L238.69-14.9 238.69-37.9 247.69-37.9 247.69-14.9Q247.69-7.35 243.59-3.25 239.49 0.85 231.19 0.85L231.19 0.85ZM268.43 0.85Q264.43 0.85 261.03 0.18 257.63-0.5 254.48-2L254.48-2 254.48-10.1Q260.83-6.75 268.43-6.75L268.43-6.75Q271.38-6.75 272.76-7.75 274.13-8.75 274.13-10.4L274.13-10.4Q274.13-12.05 272.91-12.88 271.68-13.7 268.53-14.55L268.53-14.55 265.13-15.5Q262.13-16.35 259.93-17.48 257.73-18.6 256.18-20.85 254.63-23.1 254.63-26.65L254.63-26.65Q254.63-32.5 258.21-35.55 261.78-38.6 268.28-38.6L268.28-38.6Q272.18-38.6 275.13-37.9 278.08-37.2 281.18-35.75L281.18-35.75 281.18-27.95Q275.48-31 268.28-31L268.28-31Q265.63-31 264.58-30.1 263.53-29.2 263.53-27.5L263.53-27.5Q263.53-26.35 264.03-25.68 264.53-25 265.58-24.55 266.63-24.1 268.73-23.5L268.73-23.5 272.18-22.55Q275.38-21.65 277.68-20.45 279.98-19.25 281.51-16.9 283.03-14.55 283.03-10.85L283.03-10.85Q282.98-5.4 279.11-2.27 275.23 0.85 268.43 0.85L268.43 0.85ZM298.23-7.2L314.53-7.2 314.53 0 289.23 0 289.23-37.9 314.28-37.9 314.28-30.7 298.23-30.7 298.23-22.65 311.78-22.65 311.78-15.45 298.23-15.45 298.23-7.2ZM342.83 0L334.73-13.7 330.53-13.7 330.53 0 321.53 0 321.53-37.9 336.88-37.9Q351.33-37.9 351.33-25.75L351.33-25.75Q351.33-17.1 343.78-14.65L343.78-14.65 352.83 0 342.83 0ZM330.53-30.3L330.53-21.3 336.88-21.3Q342.23-21.3 342.23-25.75L342.23-25.75Q342.23-28.1 340.93-29.2 339.63-30.3 336.88-30.3L336.88-30.3 330.53-30.3ZM384.78-37.9L394.03-37.9 380.78 0.45 369.38 0.45 356.08-37.9 365.33-37.9 375.08-8.85 384.78-37.9Z" opacity="1" transform="matrix(1,0,0,1,0,0)" fill="#59b7dc" class="undefined-text-0" data-fill-palette-color="primary" id="text-0"></path></svg></g></svg></g><g transform="matrix(1,0,0,1,0.9887999999999693,51.81132548291115)"><svg viewBox="0 0 395.52 21.37879759767197" height="21.37879759767197" width="395.52"><g transform="matrix(1,0,0,1,0,0)"><svg width="395.52" viewBox="1.2 -33.65 807.4599999999999 43.65" height="21.37879759767197" data-palette-color="#0f1c21"><path d="M20.65-6L21.4-0.7Q17.35 0.65 12.35 0.65L12.35 0.65Q6.75 0.65 3.98-2.18 1.2-5 1.2-11L1.2-11Q1.2-13.95 2-16.82 2.8-19.7 3.7-20.7L3.7-20.7Q4.75-21.85 7.83-22.65 10.9-23.45 14.2-23.45L14.2-23.45Q17.65-23.45 21.15-22.85L21.15-22.85Q21.05-21.6 20.83-19.93 20.6-18.25 20.35-16.95L20.35-16.95Q17.25-17.15 14.5-17.15L14.5-17.15Q11.8-17.15 11.05-16.85L11.05-16.85Q10.65-16.7 10.33-14.8 10-12.9 10-11.25L10-11.25Q10-9.05 10.63-7.88 11.25-6.7 12.6-6.25 13.95-5.8 16.25-5.8L16.25-5.8Q17.25-5.8 20.65-6L20.65-6ZM35.35 0.65Q29.35 0.65 26.37-2.18 23.4-5 23.4-11.1L23.4-11.1Q23.4-14.45 24.02-16.98 24.65-19.5 25.55-20.5L25.55-20.5Q26.7-21.8 29.77-22.65 32.85-23.5 35.55-23.5L35.55-23.5Q42-23.5 44.75-20.75 47.5-18 47.5-11.95L47.5-11.95Q47.5-5.45 44.55-2.4 41.6 0.65 35.35 0.65L35.35 0.65ZM35.5-5.2Q37.45-5.2 38.05-6.58 38.65-7.95 38.65-11.45L38.65-11.45Q38.65-13.9 38.4-15.23 38.15-16.55 37.47-17.18 36.8-17.8 35.4-17.8L35.4-17.8Q33.4-17.8 33.1-17.45L33.1-17.45Q32.7-17.1 32.45-15.25 32.2-13.4 32.2-11.4L32.2-11.4Q32.2-8 32.87-6.6 33.55-5.2 35.5-5.2L35.5-5.2ZM73-21.55Q73.45-21 73.67-18.8 73.9-16.6 73.9-12.1L73.9-12.1 73.9 0 65.35 0 65.35-12 65.35-14.05Q65.35-15.65 65.1-16.05L65.1-16.05Q64.7-16.55 63.25-16.55L63.25-16.55Q62.55-16.55 62.2-16.5L62.2-16.5Q60.8-16.45 59.3-15.85L59.3-15.85 59.3 0 50.75 0 50.75-23 57.7-23 58.65-19.15Q62.25-23.5 67.25-23.5L67.25-23.5Q69.05-23.5 70.62-23 72.2-22.5 73-21.55L73-21.55ZM88.44-18.1L88.44-9.45Q88.44-8.55 88.49-7.58 88.54-6.6 88.79-6.35L88.79-6.35Q89.14-6 91.24-6L91.24-6 92.94-6.05Q93.39-3.65 93.39-0.5L93.39-0.5Q92.44-0.15 90.62 0.15 88.79 0.45 87.14 0.45L87.14 0.45Q83.69 0.45 81.82-1.07 79.94-2.6 79.94-5.8L79.94-5.8 79.94-18.1 76.19-18.1 76.19-22.65 79.94-23 82.19-28.5 88.44-28.85 88.44-23 93.74-23 93.74-18.1 88.44-18.1ZM100.74-25.85Q99.04-25.85 97.82-27 96.59-28.15 96.59-29.75L96.59-29.75Q96.59-31.35 97.82-32.5 99.04-33.65 100.74-33.65L100.74-33.65Q102.44-33.65 103.64-32.5 104.84-31.35 104.84-29.75L104.84-29.75Q104.84-28.15 103.64-27 102.44-25.85 100.74-25.85L100.74-25.85ZM96.44 0L96.44-23 104.99-23 104.99 0 96.44 0ZM131.49-21.55Q131.94-21 132.16-18.8 132.39-16.6 132.39-12.1L132.39-12.1 132.39 0 123.84 0 123.84-12 123.84-14.05Q123.84-15.65 123.59-16.05L123.59-16.05Q123.19-16.55 121.74-16.55L121.74-16.55Q121.04-16.55 120.69-16.5L120.69-16.5Q119.29-16.45 117.79-15.85L117.79-15.85 117.79 0 109.24 0 109.24-23 116.19-23 117.14-19.15Q120.74-23.5 125.74-23.5L125.74-23.5Q127.54-23.5 129.11-23 130.69-22.5 131.49-21.55L131.49-21.55ZM150.79-23L159.34-23 159.34 0 152.39 0 151.44-3.85Q147.84 0.5 142.84 0.5L142.84 0.5Q141.04 0.5 139.46 0 137.89-0.5 137.09-1.45L137.09-1.45Q136.64-2 136.41-4.2 136.19-6.4 136.19-10.9L136.19-10.9 136.19-23 144.74-23 144.74-11Q144.74-10 144.79-8.65 144.84-7.3 145.09-6.95L145.09-6.95Q145.44-6.45 147.09-6.45L147.09-6.45 147.89-6.5Q149.29-6.55 150.79-7.15L150.79-7.15 150.79-23ZM177.38-6Q178.63-6 182.03-6.25L182.03-6.25Q182.48-6.25 183.68-6.35L183.68-6.35 184.43-1.2Q180.58 0.6 174.43 0.6L174.43 0.6Q168.68 0.6 165.61-2.3 162.53-5.2 162.53-11.05L162.53-11.05Q162.53-14.05 163.31-16.85 164.08-19.65 165.08-20.75L165.08-20.75Q166.13-21.85 168.98-22.65 171.83-23.45 174.63-23.45L174.63-23.45Q179.13-23.45 181.38-21.85 183.63-20.25 184.33-17.43 185.03-14.6 185.03-9.85L185.03-9.85Q181.63-9.65 178.38-9.65L178.38-9.65 171.28-9.65Q171.28-8.05 171.96-7.25 172.63-6.45 173.88-6.23 175.13-6 177.38-6L177.38-6ZM171.78-17.5Q171.48-17.35 171.33-16.2 171.18-15.05 171.13-13.6L171.13-13.6 173.73-13.6Q176.08-13.6 177.13-13.65L177.13-13.65Q177.13-16.05 176.46-17.05 175.78-18.05 174.13-18.05L174.13-18.05Q172.78-18.05 171.78-17.5L171.78-17.5ZM214.13-7.8Q214.13-3.35 211.3-1.4 208.48 0.55 203.28 0.55L203.28 0.55Q199.63 0.55 194.88-0.5L194.88-0.5Q194.98-1.5 195.35-3.38 195.73-5.25 195.98-6.25L195.98-6.25Q197.78-5.95 199.98-5.78 202.18-5.6 203.73-5.6L203.73-5.6Q205.08-5.6 205.38-5.75L205.38-5.75Q205.43-5.8 205.5-6.03 205.58-6.25 205.58-6.5L205.58-6.5Q205.58-7.5 204.33-7.85L204.33-7.85Q203.93-7.95 201.28-8.7 198.63-9.45 196.95-11.43 195.28-13.4 195.28-16.35L195.28-16.35Q195.28-17.9 195.98-19.8 196.68-21.7 197.48-22.2L197.48-22.2Q198.08-22.6 200.38-23.03 202.68-23.45 204.63-23.45L204.63-23.45Q208.78-23.45 212.98-22.85L212.98-22.85Q212.98-21.95 212.73-19.83 212.48-17.7 212.28-17.15L212.28-17.15Q208.03-17.7 205.43-17.7L205.43-17.7Q204.08-17.7 203.68-17.55L203.68-17.55Q203.58-17.5 203.48-17.28 203.38-17.05 203.38-16.7L203.38-16.7Q203.38-16 203.83-15.7L203.83-15.7Q204.28-15.35 206.18-14.85L206.18-14.85Q208.43-14.2 210.05-13.5 211.68-12.8 212.9-11.4 214.13-10 214.13-7.8L214.13-7.8ZM230.93-6Q232.18-6 235.58-6.25L235.58-6.25Q236.03-6.25 237.23-6.35L237.23-6.35 237.98-1.2Q234.13 0.6 227.98 0.6L227.98 0.6Q222.23 0.6 219.15-2.3 216.08-5.2 216.08-11.05L216.08-11.05Q216.08-14.05 216.85-16.85 217.63-19.65 218.63-20.75L218.63-20.75Q219.68-21.85 222.53-22.65 225.38-23.45 228.18-23.45L228.18-23.45Q232.68-23.45 234.93-21.85 237.18-20.25 237.88-17.43 238.58-14.6 238.58-9.85L238.58-9.85Q235.18-9.65 231.93-9.65L231.93-9.65 224.83-9.65Q224.83-8.05 225.5-7.25 226.18-6.45 227.43-6.23 228.68-6 230.93-6L230.93-6ZM225.33-17.5Q225.03-17.35 224.88-16.2 224.73-15.05 224.68-13.6L224.68-13.6 227.28-13.6Q229.63-13.6 230.68-13.65L230.68-13.65Q230.68-16.05 230-17.05 229.33-18.05 227.68-18.05L227.68-18.05Q226.33-18.05 225.33-17.5L225.33-17.5ZM255.82-23.5Q256.47-23.5 257.2-23.35 257.92-23.2 258.27-23L258.27-23Q258.27-21.9 258.02-19.38 257.77-16.85 257.57-15.8L257.57-15.8Q257.07-15.85 255.72-15.85L255.72-15.85Q252.57-15.85 250.12-15.5L250.12-15.5 250.12 0 241.57 0 241.57-23 248.72-23 249.72-19.3 249.77-19.3Q251.22-21.2 252.87-22.35 254.52-23.5 255.82-23.5L255.82-23.5ZM271.62-5.35L275.32-23 284.27-23 277.27 0 265.42 0 258.42-23 267.37-23 271.12-5.35 271.62-5.35ZM300.22-6Q301.47-6 304.87-6.25L304.87-6.25Q305.32-6.25 306.52-6.35L306.52-6.35 307.27-1.2Q303.42 0.6 297.27 0.6L297.27 0.6Q291.52 0.6 288.44-2.3 285.37-5.2 285.37-11.05L285.37-11.05Q285.37-14.05 286.14-16.85 286.92-19.65 287.92-20.75L287.92-20.75Q288.97-21.85 291.82-22.65 294.67-23.45 297.47-23.45L297.47-23.45Q301.97-23.45 304.22-21.85 306.47-20.25 307.17-17.43 307.87-14.6 307.87-9.85L307.87-9.85Q304.47-9.65 301.22-9.65L301.22-9.65 294.12-9.65Q294.12-8.05 294.79-7.25 295.47-6.45 296.72-6.23 297.97-6 300.22-6L300.22-6ZM294.62-17.5Q294.32-17.35 294.17-16.2 294.02-15.05 293.97-13.6L293.97-13.6 296.57-13.6Q298.92-13.6 299.97-13.65L299.97-13.65Q299.97-16.05 299.29-17.05 298.62-18.05 296.97-18.05L296.97-18.05Q295.62-18.05 294.62-17.5L294.62-17.5ZM332.66-30L341.26-30.35 341.26 0 334.21 0 333.51-3.85Q332.51-1.9 330.56-0.75 328.61 0.4 326.16 0.4L326.16 0.4Q322.26 0.4 319.94-2.4 317.61-5.2 317.61-10.8L317.61-10.8Q317.61-15.05 318.61-17.8 319.61-20.55 320.96-21.75L320.96-21.75Q321.81-22.5 324.44-23 327.06-23.5 329.11-23.5L329.11-23.5Q330.91-23.5 332.81-23.15L332.81-23.15Q332.66-25.55 332.66-25.8L332.66-25.8 332.66-30ZM329.91-6.3Q331.26-6.3 332.71-6.75L332.71-6.75 332.71-17.6Q331.26-17.8 329.51-17.8L329.51-17.8Q328.01-17.8 327.61-17.55L327.61-17.55Q327.06-17.15 326.74-15.28 326.41-13.4 326.41-11.35L326.41-11.35Q326.41-8.3 327.34-7.3 328.26-6.3 329.91-6.3L329.91-6.3ZM359.61-23.5Q360.26-23.5 360.99-23.35 361.71-23.2 362.06-23L362.06-23Q362.06-21.9 361.81-19.38 361.56-16.85 361.36-15.8L361.36-15.8Q360.86-15.85 359.51-15.85L359.51-15.85Q356.36-15.85 353.91-15.5L353.91-15.5 353.91 0 345.36 0 345.36-23 352.51-23 353.51-19.3 353.56-19.3Q355.01-21.2 356.66-22.35 358.31-23.5 359.61-23.5L359.61-23.5ZM375.41 0.65Q369.41 0.65 366.43-2.18 363.46-5 363.46-11.1L363.46-11.1Q363.46-14.45 364.08-16.98 364.71-19.5 365.61-20.5L365.61-20.5Q366.76-21.8 369.83-22.65 372.91-23.5 375.61-23.5L375.61-23.5Q382.06-23.5 384.81-20.75 387.56-18 387.56-11.95L387.56-11.95Q387.56-5.45 384.61-2.4 381.66 0.65 375.41 0.65L375.41 0.65ZM375.56-5.2Q377.51-5.2 378.11-6.58 378.71-7.95 378.71-11.45L378.71-11.45Q378.71-13.9 378.46-15.23 378.21-16.55 377.53-17.18 376.86-17.8 375.46-17.8L375.46-17.8Q373.46-17.8 373.16-17.45L373.16-17.45Q372.76-17.1 372.51-15.25 372.26-13.4 372.26-11.4L372.26-11.4Q372.26-8 372.93-6.6 373.61-5.2 375.56-5.2L375.56-5.2ZM406.61-23.5Q410.21-23.5 412.33-21.13 414.46-18.75 414.46-12.85L414.46-12.85Q414.46-8.45 413.61-5.68 412.76-2.9 411.66-2L411.66-2Q410.56-1.1 407.83-0.55 405.11 0 402.21 0L402.21 0Q401.36 0 399.36-0.1L399.36-0.1 399.36 7 390.81 7.35 390.81-23 397.81-23 398.66-19.45Q399.96-21.3 401.98-22.4 404.01-23.5 406.61-23.5L406.61-23.5ZM404.61-6.1Q405.16-6.5 405.41-8.38 405.66-10.25 405.66-11.95L405.66-11.95Q405.66-14.75 404.96-16.1 404.26-17.45 402.16-17.45L402.16-17.45Q400.66-17.45 399.36-17.15L399.36-17.15 399.36-6.05 400.76-5.9Q401.41-5.85 402.61-5.85L402.61-5.85Q404.31-5.85 404.61-6.1L404.61-6.1ZM436.4-7.8Q436.4-3.35 433.58-1.4 430.75 0.55 425.55 0.55L425.55 0.55Q421.9 0.55 417.15-0.5L417.15-0.5Q417.25-1.5 417.63-3.38 418-5.25 418.25-6.25L418.25-6.25Q420.05-5.95 422.25-5.78 424.45-5.6 426-5.6L426-5.6Q427.35-5.6 427.65-5.75L427.65-5.75Q427.7-5.8 427.78-6.03 427.85-6.25 427.85-6.5L427.85-6.5Q427.85-7.5 426.6-7.85L426.6-7.85Q426.2-7.95 423.55-8.7 420.9-9.45 419.23-11.43 417.55-13.4 417.55-16.35L417.55-16.35Q417.55-17.9 418.25-19.8 418.95-21.7 419.75-22.2L419.75-22.2Q420.35-22.6 422.65-23.03 424.95-23.45 426.9-23.45L426.9-23.45Q431.05-23.45 435.25-22.85L435.25-22.85Q435.25-21.95 435-19.83 434.75-17.7 434.55-17.15L434.55-17.15Q430.3-17.7 427.7-17.7L427.7-17.7Q426.35-17.7 425.95-17.55L425.95-17.55Q425.85-17.5 425.75-17.28 425.65-17.05 425.65-16.7L425.65-16.7Q425.65-16 426.1-15.7L426.1-15.7Q426.55-15.35 428.45-14.85L428.45-14.85Q430.7-14.2 432.33-13.5 433.95-12.8 435.18-11.4 436.4-10 436.4-7.8L436.4-7.8ZM461.5-21.55Q461.95-21 462.18-18.8 462.4-16.6 462.4-12.1L462.4-12.1 462.4 0 453.85 0 453.85-12Q453.85-12.2 453.85-13.98 453.85-15.75 453.6-16.15L453.6-16.15Q453.45-16.35 452.88-16.45 452.3-16.55 451.55-16.55L451.55-16.55 450.7-16.5Q449.3-16.45 447.8-15.85L447.8-15.85 447.8 0 439.25 0 439.25-30 447.8-30.35 447.8-24.5Q447.8-20.9 447.55-19.7L447.55-19.7 447.6-19.65Q451-23.5 455.75-23.5L455.75-23.5Q457.55-23.5 459.13-23 460.7-22.5 461.5-21.55L461.5-21.55ZM470.8-25.85Q469.1-25.85 467.87-27 466.65-28.15 466.65-29.75L466.65-29.75Q466.65-31.35 467.87-32.5 469.1-33.65 470.8-33.65L470.8-33.65Q472.5-33.65 473.7-32.5 474.9-31.35 474.9-29.75L474.9-29.75Q474.9-28.15 473.7-27 472.5-25.85 470.8-25.85L470.8-25.85ZM466.5 0L466.5-23 475.05-23 475.05 0 466.5 0ZM495.1-23.5Q498.7-23.5 500.82-21.13 502.95-18.75 502.95-12.85L502.95-12.85Q502.95-8.45 502.1-5.68 501.25-2.9 500.15-2L500.15-2Q499.05-1.1 496.32-0.55 493.6 0 490.7 0L490.7 0Q489.85 0 487.85-0.1L487.85-0.1 487.85 7 479.3 7.35 479.3-23 486.3-23 487.15-19.45Q488.45-21.3 490.47-22.4 492.5-23.5 495.1-23.5L495.1-23.5ZM493.1-6.1Q493.65-6.5 493.9-8.38 494.15-10.25 494.15-11.95L494.15-11.95Q494.15-14.75 493.45-16.1 492.75-17.45 490.65-17.45L490.65-17.45Q489.15-17.45 487.85-17.15L487.85-17.15 487.85-6.05 489.25-5.9Q489.9-5.85 491.1-5.85L491.1-5.85Q492.8-5.85 493.1-6.1L493.1-6.1ZM522.09-23.5Q525.69-23.5 527.82-21.13 529.94-18.75 529.94-12.85L529.94-12.85Q529.94-8.45 529.09-5.68 528.24-2.9 527.14-2L527.14-2Q526.04-1.1 523.32-0.55 520.59 0 517.69 0L517.69 0Q516.84 0 514.84-0.1L514.84-0.1 514.84 7 506.29 7.35 506.29-23 513.29-23 514.14-19.45Q515.44-21.3 517.47-22.4 519.49-23.5 522.09-23.5L522.09-23.5ZM520.09-6.1Q520.64-6.5 520.89-8.38 521.14-10.25 521.14-11.95L521.14-11.95Q521.14-14.75 520.44-16.1 519.74-17.45 517.64-17.45L517.64-17.45Q516.14-17.45 514.84-17.15L514.84-17.15 514.84-6.05 516.24-5.9Q516.89-5.85 518.09-5.85L518.09-5.85Q519.79-5.85 520.09-6.1L520.09-6.1ZM537.74-25.85Q536.04-25.85 534.82-27 533.59-28.15 533.59-29.75L533.59-29.75Q533.59-31.35 534.82-32.5 536.04-33.65 537.74-33.65L537.74-33.65Q539.44-33.65 540.64-32.5 541.84-31.35 541.84-29.75L541.84-29.75Q541.84-28.15 540.64-27 539.44-25.85 537.74-25.85L537.74-25.85ZM533.44 0L533.44-23 541.99-23 541.99 0 533.44 0ZM568.49-21.55Q568.94-21 569.16-18.8 569.39-16.6 569.39-12.1L569.39-12.1 569.39 0 560.84 0 560.84-12 560.84-14.05Q560.84-15.65 560.59-16.05L560.59-16.05Q560.19-16.55 558.74-16.55L558.74-16.55Q558.04-16.55 557.69-16.5L557.69-16.5Q556.29-16.45 554.79-15.85L554.79-15.85 554.79 0 546.24 0 546.24-23 553.19-23 554.14-19.15Q557.74-23.5 562.74-23.5L562.74-23.5Q564.54-23.5 566.11-23 567.69-22.5 568.49-21.55L568.49-21.55ZM585.33-23.4Q587.68-23.4 590.24-23.08 592.78-22.75 596.18-22.2L596.18-22.2 596.18-2.3Q596.18 4.85 591.43 8.8L591.43 8.8Q590.83 9.3 588.74 9.65 586.63 10 583.99 10L583.99 10Q578.24 10 574.88 8.5L574.88 8.5Q574.83 7.4 575.06 5.6 575.28 3.8 575.53 2.75L575.53 2.75Q579.13 3.3 582.58 3.3L582.58 3.3Q584.33 3.3 585.56 3.13 586.78 2.95 587.08 2.6L587.08 2.6Q587.49 2.2 587.68-0.4L587.68-0.4Q587.74-1.1 587.74-2.45L587.74-2.45 587.74-3.7Q586.49-1.85 584.53-1.05 582.58-0.25 581.03-0.25L581.03-0.25Q576.83-0.25 574.68-3 572.53-5.75 572.53-11.05L572.53-11.05Q572.53-14.55 573.51-17.63 574.49-20.7 576.18-21.9L576.18-21.9Q577.28-22.65 579.76-23.03 582.24-23.4 585.33-23.4L585.33-23.4ZM584.28-6.5Q586.13-6.5 587.63-7.1L587.63-7.1 587.63-17.55Q587.08-17.65 585.99-17.75L585.99-17.75Q585.49-17.8 584.49-17.8L584.49-17.8Q582.93-17.8 582.53-17.5L582.53-17.5Q581.99-17.1 581.66-15.28 581.33-13.45 581.33-11.45L581.33-11.45Q581.33-8.7 581.96-7.6 582.58-6.5 584.28-6.5L584.28-6.5ZM618.33-18.1L618.33-9.45Q618.33-8.55 618.38-7.58 618.43-6.6 618.68-6.35L618.68-6.35Q619.03-6 621.13-6L621.13-6 622.83-6.05Q623.28-3.65 623.28-0.5L623.28-0.5Q622.33-0.15 620.5 0.15 618.68 0.45 617.03 0.45L617.03 0.45Q613.58 0.45 611.7-1.07 609.83-2.6 609.83-5.8L609.83-5.8 609.83-18.1 606.08-18.1 606.08-22.65 609.83-23 612.08-28.5 618.33-28.85 618.33-23 623.63-23 623.63-18.1 618.33-18.1ZM648.43-21.55Q648.88-21 649.1-18.8 649.33-16.6 649.33-12.1L649.33-12.1 649.33 0 640.78 0 640.78-12Q640.78-12.2 640.78-13.98 640.78-15.75 640.53-16.15L640.53-16.15Q640.38-16.35 639.8-16.45 639.23-16.55 638.48-16.55L638.48-16.55 637.63-16.5Q636.23-16.45 634.73-15.85L634.73-15.85 634.73 0 626.18 0 626.18-30 634.73-30.35 634.73-24.5Q634.73-20.9 634.48-19.7L634.48-19.7 634.53-19.65Q637.93-23.5 642.68-23.5L642.68-23.5Q644.48-23.5 646.05-23 647.63-22.5 648.43-21.55L648.43-21.55ZM667.52-23.5Q668.17-23.5 668.9-23.35 669.62-23.2 669.97-23L669.97-23Q669.97-21.9 669.72-19.38 669.47-16.85 669.27-15.8L669.27-15.8Q668.77-15.85 667.42-15.85L667.42-15.85Q664.27-15.85 661.82-15.5L661.82-15.5 661.82 0 653.27 0 653.27-23 660.42-23 661.42-19.3 661.47-19.3Q662.92-21.2 664.57-22.35 666.22-23.5 667.52-23.5L667.52-23.5ZM686.67-23L695.22-23 695.22 0 688.27 0 687.32-3.85Q683.72 0.5 678.72 0.5L678.72 0.5Q676.92 0.5 675.35 0 673.77-0.5 672.97-1.45L672.97-1.45Q672.52-2 672.3-4.2 672.07-6.4 672.07-10.9L672.07-10.9 672.07-23 680.62-23 680.62-11Q680.62-10 680.67-8.65 680.72-7.3 680.97-6.95L680.97-6.95Q681.32-6.45 682.97-6.45L682.97-6.45 683.77-6.5Q685.17-6.55 686.67-7.15L686.67-7.15 686.67-23ZM717.42-18.1L717.42-9.45Q717.42-8.55 717.47-7.58 717.52-6.6 717.77-6.35L717.77-6.35Q718.12-6 720.22-6L720.22-6 721.92-6.05Q722.37-3.65 722.37-0.5L722.37-0.5Q721.42-0.15 719.59 0.15 717.77 0.45 716.12 0.45L716.12 0.45Q712.67 0.45 710.79-1.07 708.92-2.6 708.92-5.8L708.92-5.8 708.92-18.1 705.17-18.1 705.17-22.65 708.92-23 711.17-28.5 717.42-28.85 717.42-23 722.72-23 722.72-18.1 717.42-18.1ZM739.21-6Q740.46-6 743.86-6.25L743.86-6.25Q744.31-6.25 745.51-6.35L745.51-6.35 746.26-1.2Q742.41 0.6 736.26 0.6L736.26 0.6Q730.51 0.6 727.44-2.3 724.36-5.2 724.36-11.05L724.36-11.05Q724.36-14.05 725.14-16.85 725.91-19.65 726.91-20.75L726.91-20.75Q727.96-21.85 730.81-22.65 733.66-23.45 736.46-23.45L736.46-23.45Q740.96-23.45 743.21-21.85 745.46-20.25 746.16-17.43 746.86-14.6 746.86-9.85L746.86-9.85Q743.46-9.65 740.21-9.65L740.21-9.65 733.11-9.65Q733.11-8.05 733.79-7.25 734.46-6.45 735.71-6.23 736.96-6 739.21-6L739.21-6ZM733.61-17.5Q733.31-17.35 733.16-16.2 733.01-15.05 732.96-13.6L732.96-13.6 735.56-13.6Q737.91-13.6 738.96-13.65L738.96-13.65Q738.96-16.05 738.29-17.05 737.61-18.05 735.96-18.05L735.96-18.05Q734.61-18.05 733.61-17.5L733.61-17.5ZM768.46-6L769.21-0.7Q765.16 0.65 760.16 0.65L760.16 0.65Q754.56 0.65 751.79-2.18 749.01-5 749.01-11L749.01-11Q749.01-13.95 749.81-16.82 750.61-19.7 751.51-20.7L751.51-20.7Q752.56-21.85 755.64-22.65 758.71-23.45 762.01-23.45L762.01-23.45Q765.46-23.45 768.96-22.85L768.96-22.85Q768.86-21.6 768.64-19.93 768.41-18.25 768.16-16.95L768.16-16.95Q765.06-17.15 762.31-17.15L762.31-17.15Q759.61-17.15 758.86-16.85L758.86-16.85Q758.46-16.7 758.14-14.8 757.81-12.9 757.81-11.25L757.81-11.25Q757.81-9.05 758.44-7.88 759.06-6.7 760.41-6.25 761.76-5.8 764.06-5.8L764.06-5.8Q765.06-5.8 768.46-6L768.46-6ZM794.31-21.55Q794.76-21 794.98-18.8 795.21-16.6 795.21-12.1L795.21-12.1 795.21 0 786.66 0 786.66-12Q786.66-12.2 786.66-13.98 786.66-15.75 786.41-16.15L786.41-16.15Q786.26-16.35 785.68-16.45 785.11-16.55 784.36-16.55L784.36-16.55 783.51-16.5Q782.11-16.45 780.61-15.85L780.61-15.85 780.61 0 772.06 0 772.06-30 780.61-30.35 780.61-24.5Q780.61-20.9 780.36-19.7L780.36-19.7 780.41-19.65Q783.81-23.5 788.56-23.5L788.56-23.5Q790.36-23.5 791.93-23 793.51-22.5 794.31-21.55L794.31-21.55ZM803.81 0.4Q801.76 0.4 800.43-0.95 799.11-2.3 799.11-4.6L799.11-4.6Q799.11-6.6 800.48-7.98 801.86-9.35 803.96-9.35L803.96-9.35Q805.96-9.35 807.31-7.98 808.66-6.6 808.66-4.6L808.66-4.6Q808.66-2.3 807.33-0.95 806.01 0.4 803.81 0.4L803.81 0.4Z" opacity="1" transform="matrix(1,0,0,1,0,0)" fill="#0f1c21" class="undefined-text-1" data-fill-palette-color="secondary" id="text-1"></path></svg></g></svg></g></svg></g></svg></g><g transform="matrix(1,0,0,1,75.92204159999999,0)"><svg viewBox="0 0 245.65351679999995 93.87820242857147" height="93.87820242857147" width="245.65351679999995"><g><svg xmlns="http://www.w3.org/2000/svg" xmlns:xlink="http://www.w3.org/1999/xlink" version="1.1" x="0" y="0" viewBox="0.07882610624648419 22.992 99.84117389375352 38.155" enable-background="new 0 0 100 100" xml:space="preserve" height="93.87820242857147" width="245.65351679999995" class="icon-icon-0" data-fill-palette-color="accent" id="icon-0"><g fill="#32b0e6" data-fill-palette-color="accent"><rect x="28.762" y="48.642" width="7.079" height="2.022" fill="#32b0e6" data-fill-palette-color="accent"></rect><rect x="28.764" y="44.599" width="7.077" height="3.033" fill="#32b0e6" data-fill-palette-color="accent"></rect><rect x="36.853" y="48.642" width="7.079" height="2.022" fill="#32b0e6" data-fill-palette-color="accent"></rect><rect x="36.854" y="44.599" width="7.078" height="3.033" fill="#32b0e6" data-fill-palette-color="accent"></rect><rect x="36.854" y="40.553" width="7.078" height="3.034" fill="#32b0e6" data-fill-palette-color="accent"></rect><rect x="44.943" y="48.642" width="7.079" height="2.022" fill="#32b0e6" data-fill-palette-color="accent"></rect><rect x="44.945" y="44.599" width="7.078" height="3.033" fill="#32b0e6" data-fill-palette-color="accent"></rect><rect x="44.945" y="40.553" width="7.078" height="3.034" fill="#32b0e6" data-fill-palette-color="accent"></rect><rect x="53.034" y="48.642" width="7.078" height="2.022" fill="#32b0e6" data-fill-palette-color="accent"></rect><rect x="53.034" y="44.599" width="7.078" height="3.033" fill="#32b0e6" data-fill-palette-color="accent"></rect><rect x="53.034" y="40.553" width="7.078" height="3.034" fill="#32b0e6" data-fill-palette-color="accent"></rect><rect x="61.123" y="48.642" width="7.078" height="2.022" fill="#32b0e6" data-fill-palette-color="accent"></rect><rect x="61.125" y="44.599" width="7.076" height="3.033" fill="#32b0e6" data-fill-palette-color="accent"></rect><rect x="61.125" y="40.553" width="7.076" height="3.034" fill="#32b0e6" data-fill-palette-color="accent"></rect><rect x="69.213" y="48.642" width="7.08" height="2.022" fill="#32b0e6" data-fill-palette-color="accent"></rect><rect x="69.214" y="44.599" width="7.079" height="3.033" fill="#32b0e6" data-fill-palette-color="accent"></rect><polygon points="95.503,35.126 95.503,33.474 86.404,33.474 86.954,35.126  " fill="#32b0e6" data-fill-palette-color="accent"></polygon><polygon points="95.503,39.17 95.503,35.866 87.2,35.866 88.302,39.17  " fill="#32b0e6" data-fill-palette-color="accent"></polygon><path d="M95.503 40.553v-0.642h-9.099v1.913h2.021c0.276 0 0.498 0.223 0.498 0.499 0 0.276-0.222 0.5-0.498 0.5h-2.021v1.023h2.021c0.276 0 0.498 0.223 0.498 0.5 0 0.275-0.222 0.499-0.498 0.499h-2.021v1.023h2.021c0.276 0 0.498 0.223 0.498 0.5 0 0.275-0.222 0.499-0.498 0.499h-2.021v1.777h9.099V40.553zM93.482 46.873h-1.012v-1.011h1.012V46.873zM93.482 44.851h-1.012V43.84h1.012V44.851zM93.482 42.829h-1.012v-1.011h1.012V42.829z" fill="#32b0e6" data-fill-palette-color="accent"></path><path d="M99.92 50.665c0-0.205-0.166-0.37-0.37-0.37h-1.87l-0.903-0.902c-0.067-0.069-0.163-0.108-0.261-0.108H84.381c-0.098 0-0.193 0.039-0.262 0.108l-1.914 1.914H23.86l-0.903-0.903c-0.069-0.069-0.163-0.108-0.261-0.108h-1.869l-0.903-0.902c-0.069-0.07-0.163-0.108-0.261-0.108-5.983 0-19.054-1-19.186-1.01-0.17-0.026-0.325 0.091-0.379 0.251-0.054 0.162 0.009 0.338 0.152 0.429 3.787 2.41 6.386 4.584 8.168 6.397H99.92v-0.639c0-0.001 0-0.002 0-0.003V50.665zM6.01 50.665c-0.279 0-0.506-0.226-0.506-0.505 0-0.28 0.227-0.506 0.506-0.506 0.279 0 0.505 0.226 0.505 0.506C6.516 50.439 6.289 50.665 6.01 50.665z" fill="#32b0e6" data-fill-palette-color="accent"></path><path d="M98.169 57.744c0 0.204 0.164 0.369 0.37 0.369h1.011c0.204 0 0.37-0.165 0.37-0.369v-1.652h-1.751V57.744z" fill="#32b0e6" data-fill-palette-color="accent"></path><path d="M12.22 60.85c0.035 0.174 0.186 0.297 0.363 0.297h74.831c6.15 0 8.266-2.043 8.352-2.129 0.142-0.143 0.142-0.375 0.003-0.521-0.013-0.013-0.308-0.331-0.19-0.809 0.087-0.346 0.45-0.925 1.659-1.596H9.119C11.792 59.018 12.214 60.822 12.22 60.85z" fill="#32b0e6" data-fill-palette-color="accent"></path><path d="M93.852 23.361c0-0.204-0.165-0.369-0.369-0.369-0.206 0-0.37 0.165-0.37 0.369v9.101h0.739V23.361z" fill="#32b0e6" data-fill-palette-color="accent"></path></g></svg></g></svg></g><g></g></svg></g><defs></defs></svg><rect width="395.52" height="175.58006614722808" fill="none" stroke="none" visibility="hidden"></rect></g></svg></g></svg>