<svg xmlns="http://www.w3.org/2000/svg" version="1.1" xmlns:xlink="http://www.w3.org/1999/xlink" xmlns:svgjs="http://svgjs.dev/svgjs" width="1500" height="1687" viewBox="0 0 1500 1687"><g transform="matrix(1,0,0,1,0.000011718749760802893,0)"><svg viewBox="0 0 320 360" data-background-color="#0c1d36" preserveAspectRatio="xMidYMid meet" height="1687" width="1500" xmlns="http://www.w3.org/2000/svg" xmlns:xlink="http://www.w3.org/1999/xlink"><g id="tight-bounds" transform="matrix(1,0,0,1,0.0000025000000505315256,0)"><svg viewBox="0 0 320 360" height="360" width="320"><g><svg></svg></g><g><svg viewBox="0 0 320 360" height="360" width="320"><g><path transform="translate(-19.44751,3.1739) scale(3.53591,3.53591)" d="M67.6 10.7c0.2 0 1.8 0.8 2.7 1.1-0.3 0.1-1-0.2-1.8-0.5 0.2 0 0.6 0.1 1 0.3-0.2-0.2-1.7-0.7-1.9-0.9M52.7 7.6c0.3-0.1 3.8 0.4 5.4 0.5 0.1-0.1-0.2-0.1-0.6-0.2 0.5-0.1 1.5 0.2 2.2 0.3-2.1 0.1-4.4-0.5-6.4-0.3-0.7 0-0.2-0.2-0.6-0.3M49.8 7.6c1.8 0 3.2 0 0.6 0.2-0.3-0.1-0.7-0.1-0.6-0.2M78.1 15.9c0.2 0 1 0.9 1.4 1.2-0.1 0.1-0.9-0.7-1.3-1 0.1 0.1 0 0-0.1-0.2M76.1 14.6c-0.8-0.7-1.1-0.7-1.2-1.1 0.7 0.4 1.2 0.8 1.2 1.1M63.2 8.3c0.1-0.1 0.3 0.1 0.8 0.2-0.6-0.1-0.5 0-0.3 0.2-0.7-0.1-0.9-0.2-0.7-0.4 0.4 0.2 0.5 0.1 0.2 0M34.8 9.5c0-0.1 0.4-0.3 0.7-0.4-0.3 0.2-0.2 0.3 0.3 0.1 0 0.1-0.6 0.3-1 0.5 0.2-0.1 0.4-0.4 0-0.2M65.2 7.3c-0.3 0.1-1.4-0.5-2.5-0.7-0.6-0.2 2.4 0.5 2.5 0.7M6.2 56.7c0.6 2.5 0.2 2.4 0 0M6.3 41.7c0.1-0.4 0.2-1.5 0.3-1.4-0.3 2.4-0.8 3.5-0.9 5.3 0.3-1.6-0.1 0.9-0.2 1.5 0.1 0.8 0.1-0.5 0.3-0.3 0.2 0.3-0.4 4.5-0.2 2.2-0.2 2.1 0 4.4 0.4 5-0.5 3.2 2 10.4 2.5 11.9 0.1 0.1 0-0.5 0.2-0.1 0.2 1.3 1.1 2.2 1.4 3.6 0.3 0.4 1.5 2.6 1.7 3.1 0.4 0.8 0.6 0.7 1 1.5 1.2 2.3 3.1 4.5 4.9 6.6 5.8 6.8 14.7 12.4 24.6 14.4 9.9 2.1 20.3 0.6 28.4-3.3 0.5-0.3 0.4-0.4 1-0.6 2.8-0.9 6.2-3.8 8.1-4.9 0.9-1 3.3-2.7 3.6-3.7 1.7-1.4 3.4-3.7 4.3-5.2 0.5-0.8 0.9-0.8 1.1-1.3-0.1 0 1.6-2.1 2.1-3.3-0.2 0-0.5 0.6-0.5 0 3.6-6.9 5.6-16.2 4.5-22.6 0.2 7.9-1.8 16.7-5.6 22.3-1.7 3.6-5.2 7.5-8.4 10.3-0.5 0.5-1 1.1-1.6 1.5-1.9 1.6-4 2.9-6.2 4.1-5.2 2.9-11 5.4-17.8 5.5 11.7-1 22.2-6.9 28-14.1-4.4 4.3-6.3 6-11.2 8.5-0.4 0.7-3.7 2.1-5.9 2.7 1.3-0.6 4-1.6 4.9-2.4-7.3 3.5-15.4 5.5-23 4.4 2.9 0 7 0.1 10.9-0.6 0.6-0.2 0.9-0.4 1.6-0.5 7.6-1.7 14.9-5.4 20.1-10.6-3 2.7-7.5 5.9-10.4 6.9 2.7-1.5 7.6-4.4 9.2-6.6-3.2 3.2-9.2 6.4-13 7.8-0.6 0.1 0.4-0.4-0.6 0-1.2 0.3-0.7 0.3-1 0.5-4.6 1.3-9.9 2.4-14.3 2-0.8-0.1-1.1-0.3-1.8-0.3-0.8-0.1-1.5-0.1-2.4-0.1-3.5-0.4-7.3-1.8-10.1-3-1.5-0.7-3-1.2-4.5-2.1-1.2-0.7-2.2-1.5-3.2-2.3-3.8-2.8-7-5.6-10-9.6-5.4-7.5-8.2-16.9-7.8-26.2 0.4-9.3 4.1-18.4 10-25.1-0.3 0.3 0.4-0.7 1-1.3 0 0.2-0.1 0.5 0.6-0.2 0.6-0.7-0.2-0.2 0.1-0.6 6.2-6.8 17-12.3 28.1-12.5 0.4-0.3 1.1-0.7 1.9-0.5 0 0.1-0.5 0.1-0.5 0.1 1.1-0.1 2.1-0.1 2.6 0.1 0.1-0.1-0.4-0.2 0-0.2 0.7 0.2 0.9 0 1.3 0.2-0.3 0-0.6 0-0.8 0.1 2.5 0 4.1 0.6 6.6 0.8-1.3-0.3-1.6-0.3-2.6-0.6 1.1 0.2 1.6 0.4 2.1 0.3-0.2 0-0.1-0.3 0.1-0.2 2 0.5 2.2 0.7 4.3 1.4 0.2-0.2-0.9-0.3-1.2-0.6 2 0.7 3.8 1.2 5 2-0.4-0.3-1.6-0.7-2.5-1.1-0.1 0.1 0.3 0.2 0.4 0.4-1-0.5-2.4-1-3.8-1.2 1.2 0.3 2 0.7 2.5 0.9-1.1-0.2-2.5-0.9-4.1-1.2 2.6 0.8 7.5 2.6 10.5 4.2-1.1-0.7-2.4-1.2-3.1-1.6 0.6 0.1 1.3 0.5 1.3 0.3 0.7 0.3 1.6 1 2.1 1.1-0.9-0.6-2.7-1.5-3.3-1.8 7.5 3.4 14.2 9.1 18.5 16.4 0.4 0.7 1 2.3 1.5 2.5-0.1-0.5-0.5-0.8-0.9-1.6 0.2 0 0.2-0.3 0-0.6-0.4-0.5 0 0.4-0.4-0.1-1.8-3.3-4-6.2-7.4-9.4 1.9 1.8 0.5 0.5 0.1-0.1 2.6 2.3 5.6 6.2 6.9 8.2-0.2-0.3-0.3-0.5-0.2-0.5 2.4 4.1 3.9 7.8 5.4 13.1 0.1 0.1 0-0.4 0.2-0.1 1 4.2 1.3 7.7 1.2 10.9 0.8-5.4-1-13.8-4.2-20.4-0.4-0.8-0.4-0.2-0.8-1.1 0-0.3-0.3-0.9-0.5-1.3-4-6.6-8.9-11.3-14.7-15 0.4 0.2 1.2 0.8 1.2 0.7-10.8-7.1-23.3-8.1-33.6-5.9-0.7 0.3-1 0.6-1.8 1 1.5-0.5 2.4-0.6 3.8-0.9 0.3-0.3-1.3 0.1-0.6-0.2 0.1 0.1 1.4-0.2 1.7-0.1 0 0.1-0.4 0.2-0.5 0.3 3.3-0.7 6.7-0.8 9.6-0.6-1.7 0.1-4.8-0.2-5.8 0.3 1-0.1 2.4-0.2 3.3-0.1-1.2 0-3.4 0.1-4.4 0.2-0.1-0.1 1.6-0.3 0.5-0.3-0.5 0.1-1.3 0.1-1.6 0.4-8.6 0.8-17 5.3-22.9 10.6-1.2 1-2.6 2.1-3.5 3.2-2.2 2.5-3.6 5-5.2 7.2 1-2.1 3.2-5.3 5.8-8 2.6-2.7 5.4-5 6.9-6.2 0 0.4 2.4-1.5 3.3-2.1-0.6 0.5 0.4-0.2 0.6-0.1 3.2-1.9 5.8-2.6 8.7-3.7-0.7 0.2-1.3 0.4-1.4 0.3 0.7-0.2 1.1-0.4 1-0.5-2.8 0.8-7.2 2.7-10.7 4.8 6.3-4.3 14.3-6.9 22.2-7 7.9-0.2 15.6 1.8 21.7 5 4.1 1.8 8 5.1 11.1 8.3 0.9 0.8 0.2-0.2 1.5 1.2-0.4-0.2-0.7-0.4-0.2 0.2 0.8 0.9-0.2-0.7 1.1 0.9-0.1 0-0.5-0.5-0.5-0.3 3.5 3.1 6.2 8.7 7.8 12.4-0.4-1.5-1.4-3.6-2.2-5.1 2.4 4.4 3.2 7 4.2 10.9 0.4 0.3-0.2-1.4 0.2-0.6 0.1 0.6 0.2 2.5 0.6 2.8-0.3-1.9-0.8-4.2-1.2-4.6 0.3 0.2-0.5-2.3-1-2.9-0.2-1.6-1.6-4.4-2.8-6.5-4.3-8.4-12-15.3-20.6-19.1 0-0.2-0.5-0.4-0.7-0.6-8.5-3.6-18.7-4.6-28.5-2.3-9.9 2.4-19.2 8.1-25.8 16.3 0.3-1 2.8-2.9 2.9-3.7-2.9 3.1-6 7.2-8.1 11.6-2.2 4.4-3.4 8.9-3.9 12.2" fill="#f9cc0b" fill-rule="nonzero" stroke="none" stroke-width="1" stroke-linecap="butt" stroke-linejoin="miter" stroke-miterlimit="10" stroke-dasharray="" stroke-dashoffset="0" font-family="none" font-weight="none" font-size="none" text-anchor="none" style="mix-blend-mode: normal" data-fill-palette-color="tertiary"></path></g><g transform="matrix(1,0,0,1,48,158.63399618955214)"><svg viewBox="0 0 224 42.73200762089576" height="42.73200762089576" width="224"><g><svg viewBox="0 0 224 42.73200762089576" height="42.73200762089576" width="224"><g><svg viewBox="0 0 285.57135220305844 54.477844636833034" height="42.73200762089576" width="224"><g transform="matrix(1,0,0,1,0,4.583997489818525)"><svg viewBox="0 0 224 45.30984965719598" height="45.30984965719598" width="224"><g id="textblocktransform"><svg viewBox="0 0 224 45.30984965719598" height="45.30984965719598" width="224" id="textblock"><g><svg viewBox="0 0 224 29.31680641633248" height="29.31680641633248" width="224"><g transform="matrix(1,0,0,1,0,0)"><svg width="224" viewBox="1 -35 274.28 35.9" height="29.31680641633248" data-palette-color="#f9cc0b"><path d="M18.3 0.9L18.3 0.9Q13.45 0.9 9.53-1.07 5.6-3.05 3.3-6.95 1-10.85 1-16.5L1-16.5Q1-20.8 2.4-24.05 3.8-27.3 6.23-29.5 8.65-31.7 11.83-32.8 15-33.9 18.55-33.9L18.55-33.9Q21.4-33.9 23.8-33.25 26.2-32.6 28.3-31.45L28.3-31.45 28.5-25.3 28-25.3 25.5-29.3Q25-30.25 24.4-31.03 23.8-31.8 22.9-32.2L22.9-32.2Q22.15-32.55 21.43-32.73 20.7-32.9 19.6-32.9L19.6-32.9Q16.7-32.9 14.33-31.35 11.95-29.8 10.53-26.23 9.1-22.65 9.1-16.45L9.1-16.45Q9.1-10.3 10.45-6.73 11.8-3.15 14.13-1.63 16.45-0.1 19.35-0.1L19.35-0.1Q20.95-0.1 21.9-0.33 22.85-0.55 23.8-1L23.8-1Q24.75-1.4 25.25-2.18 25.75-2.95 26.15-3.85L26.15-3.85 28.35-8.75 28.85-8.75 28.7-1.6Q26.6-0.5 24 0.2 21.4 0.9 18.3 0.9ZM43.8 0.75L43.8 0.75Q40 0.75 37.2-0.83 34.4-2.4 32.87-5.3 31.35-8.2 31.35-12.1L31.35-12.1Q31.35-16 32.97-18.85 34.6-21.7 37.42-23.25 40.25-24.8 43.8-24.8L43.8-24.8Q47.35-24.8 50.15-23.28 52.95-21.75 54.57-18.9 56.2-16.05 56.2-12.1L56.2-12.1Q56.2-8.15 54.67-5.28 53.15-2.4 50.37-0.83 47.6 0.75 43.8 0.75ZM43.8-0.25L43.8-0.25Q45.55-0.25 46.6-1.25 47.65-2.25 48.12-4.8 48.6-7.35 48.6-12L48.6-12Q48.6-16.7 48.12-19.25 47.65-21.8 46.6-22.8 45.55-23.8 43.8-23.8L43.8-23.8Q42.05-23.8 40.97-22.8 39.9-21.8 39.42-19.25 38.95-16.7 38.95-12L38.95-12Q38.95-7.35 39.42-4.8 39.9-2.25 40.97-1.25 42.05-0.25 43.8-0.25ZM70.15 0L58.4 0 58.4-0.5 59.1-0.7Q60.85-1.2 60.85-3.15L60.85-3.15 60.85-18.8Q60.85-19.9 60.5-20.43 60.15-20.95 59.15-21.15L59.15-21.15 58.4-21.35 58.4-21.85 66.95-24.75 67.45-24.25 67.84-21.25Q69.59-22.8 71.8-23.8 74-24.8 76.15-24.8L76.15-24.8Q79.45-24.8 81.22-23 83-21.2 83-17.5L83-17.5 83-3.1Q83-1.15 84.9-0.65L84.9-0.65 85.34-0.5 85.34 0 73.55 0 73.55-0.5 74.2-0.7Q75.95-1.25 75.95-3.15L75.95-3.15 75.95-19.1Q75.95-22.3 72.75-22.3L72.75-22.3Q70.55-22.3 67.95-20.1L67.95-20.1 67.95-3.1Q67.95-1.15 69.7-0.65L69.7-0.65 70.15-0.5 70.15 0ZM96.79 0.75L96.79 0.75Q93.59 0.75 91.82-0.85 90.04-2.45 90.04-5.95L90.04-5.95 90.04-23.05 86.59-23.05 86.59-23.55 87.79-23.75Q89.34-24.1 90.47-24.75 91.59-25.4 92.69-26.5L92.69-26.5 96.79-31.05 97.29-31.05 97.14-24.05 102.74-24.05 102.74-23.05 97.09-23.05 97.09-5.05Q97.09-3.3 97.87-2.4 98.64-1.5 99.84-1.5L99.84-1.5Q100.89-1.5 101.69-2.02 102.49-2.55 103.29-3.45L103.29-3.45 103.79-2.95Q102.79-1.25 101.04-0.25 99.29 0.75 96.79 0.75ZM111.34-27.4L111.34-27.4Q109.64-27.4 108.47-28.48 107.29-29.55 107.29-31.2L107.29-31.2Q107.29-32.9 108.47-33.95 109.64-35 111.34-35L111.34-35Q113.04-35 114.19-33.95 115.34-32.9 115.34-31.2L115.34-31.2Q115.34-29.55 114.19-28.48 113.04-27.4 111.34-27.4ZM117.14 0L105.44 0 105.44-0.5 106.14-0.7Q107.14-1 107.52-1.6 107.89-2.2 107.89-3.2L107.89-3.2 107.89-18.85Q107.89-19.9 107.52-20.43 107.14-20.95 106.14-21.15L106.14-21.15 105.44-21.3 105.44-21.8 114.59-24.75 115.09-24.25 114.94-17.15 114.94-3.15Q114.94-2.15 115.31-1.55 115.69-0.95 116.64-0.65L116.64-0.65 117.14-0.5 117.14 0ZM131.09 0L119.34 0 119.34-0.5 120.04-0.7Q121.79-1.2 121.79-3.15L121.79-3.15 121.79-18.8Q121.79-19.9 121.44-20.43 121.09-20.95 120.09-21.15L120.09-21.15 119.34-21.35 119.34-21.85 127.89-24.75 128.39-24.25 128.79-21.25Q130.54-22.8 132.74-23.8 134.94-24.8 137.09-24.8L137.09-24.8Q140.39-24.8 142.16-23 143.94-21.2 143.94-17.5L143.94-17.5 143.94-3.1Q143.94-1.15 145.84-0.65L145.84-0.65 146.29-0.5 146.29 0 134.49 0 134.49-0.5 135.14-0.7Q136.89-1.25 136.89-3.15L136.89-3.15 136.89-19.1Q136.89-22.3 133.69-22.3L133.69-22.3Q131.49-22.3 128.89-20.1L128.89-20.1 128.89-3.1Q128.89-1.15 130.64-0.65L130.64-0.65 131.09-0.5 131.09 0ZM157.29 0.75L157.29 0.75Q155.34 0.75 153.71 0 152.09-0.75 151.16-2.43 150.24-4.1 150.29-6.85L150.29-6.85 150.44-19.7Q150.44-20.85 150.04-21.35 149.64-21.85 148.79-22.05L148.79-22.05 148.19-22.25 148.19-22.75 157.14-24.5 157.64-24 157.39-16.9 157.39-4.85Q157.39-3.25 158.31-2.5 159.24-1.75 160.64-1.75L160.64-1.75Q162.04-1.75 163.14-2.15 164.24-2.55 165.34-3.35L165.34-3.35 165.54-19.65Q165.54-20.8 165.19-21.28 164.84-21.75 163.89-21.95L163.89-21.95 163.39-22.1 163.39-22.6 172.14-24.5 172.64-24 172.49-16.9 172.49-3.35Q172.49-2.25 172.79-1.65 173.09-1.05 174.09-0.65L174.09-0.65 174.59-0.5 174.59 0 165.84 0.5 165.39-2.45Q163.74-1.1 161.81-0.18 159.89 0.75 157.29 0.75ZM187.43 0.9L187.43 0.9Q184.68 0.9 181.83 0.23 178.98-0.45 177.08-1.55L177.08-1.55 177.33-8.35 177.83-8.35 179.38-5.1Q180.08-3.7 180.88-2.63 181.68-1.55 183.08-0.95L183.08-0.95Q184.08-0.45 185.01-0.28 185.93-0.1 187.08-0.1L187.08-0.1Q190.13-0.1 191.91-1.75 193.68-3.4 193.68-6L193.68-6Q193.68-8.45 192.48-9.83 191.28-11.2 188.63-12.5L188.63-12.5 186.58-13.4Q182.28-15.3 179.86-17.78 177.43-20.25 177.43-24.35L177.43-24.35Q177.43-27.3 178.96-29.45 180.48-31.6 183.21-32.75 185.93-33.9 189.58-33.9L189.58-33.9Q192.23-33.9 194.61-33.2 196.98-32.5 198.73-31.3L198.73-31.3 198.43-25.3 197.93-25.3 195.88-29.05Q195.03-30.8 194.18-31.53 193.33-32.25 192.23-32.55L192.23-32.55Q191.58-32.75 191.03-32.83 190.48-32.9 189.63-32.9L189.63-32.9Q187.08-32.9 185.33-31.43 183.58-29.95 183.58-27.45L183.58-27.45Q183.58-24.9 184.93-23.38 186.28-21.85 188.88-20.65L188.88-20.65 191.18-19.65Q195.98-17.55 198.08-15.18 200.18-12.8 200.18-9.05L200.18-9.05Q200.18-4.65 196.86-1.88 193.53 0.9 187.43 0.9ZM215.18-24.8L215.18-24.8Q218.43-24.8 220.73-23.48 223.03-22.15 224.26-19.88 225.48-17.6 225.48-14.7L225.48-14.7Q225.48-14.15 225.43-13.58 225.38-13 225.23-12.55L225.23-12.55 210.33-12.55Q210.38-7.15 212.26-4.78 214.13-2.4 217.83-2.4L217.83-2.4Q220.33-2.4 221.88-3.2 223.43-4 224.78-5.55L224.78-5.55 225.28-5.1Q223.73-2.35 221.16-0.8 218.58 0.75 214.98 0.75L214.98 0.75Q211.43 0.75 208.68-0.78 205.93-2.3 204.38-5.15 202.83-8 202.83-11.95L202.83-11.95Q202.83-16.05 204.63-18.93 206.43-21.8 209.26-23.3 212.08-24.8 215.18-24.8ZM215.03-23.8L215.03-23.8Q213.58-23.8 212.56-22.93 211.53-22.05 210.96-19.83 210.38-17.6 210.33-13.55L210.33-13.55 218.88-13.55Q219.38-19 218.48-21.4 217.58-23.8 215.03-23.8ZM240.93 0L227.98 0 227.98-0.5 228.73-0.7Q229.73-1 230.1-1.6 230.48-2.2 230.48-3.15L230.48-3.15 230.48-18.8Q230.48-19.9 230.1-20.43 229.73-20.95 228.73-21.15L228.73-21.15 227.98-21.35 227.98-21.85 236.58-24.75 237.08-24.25 237.53-19.95 237.53-19.55Q238.23-20.95 239.35-22.13 240.48-23.3 241.85-24.05 243.23-24.8 244.58-24.8L244.58-24.8Q246.48-24.8 247.48-23.75 248.48-22.7 248.48-21.1L248.48-21.1Q248.48-19.4 247.5-18.48 246.53-17.55 245.18-17.55L245.18-17.55Q243.08-17.55 241.48-19.65L241.48-19.65 241.38-19.75Q240.88-20.45 240.23-20.53 239.58-20.6 239.03-19.9L239.03-19.9Q238.53-19.45 238.2-18.82 237.88-18.2 237.58-17.4L237.58-17.4 237.58-3.45Q237.58-1.45 239.33-0.95L239.33-0.95 240.93-0.5 240.93 0ZM264.13 0.15L261.23 0.15 252.38-21.1Q251.68-22.8 249.98-23.35L249.98-23.35 249.28-23.55 249.28-24.05 262.23-24.05 262.23-23.55 261.33-23.35Q259.38-22.85 260.13-20.75L260.13-20.75 265.38-6.8 270.28-20.65Q270.68-21.65 270.48-22.3 270.28-22.95 269.28-23.25L269.28-23.25 268.03-23.55 268.03-24.05 275.28-24.05 275.28-23.55 273.83-23.2Q272.88-22.95 272.35-22.45 271.83-21.95 271.48-20.95L271.48-20.95 264.13 0.15Z" opacity="1" transform="matrix(1,0,0,1,0,0)" fill="#f9cc0b" class="wordmark-text-0" data-fill-palette-color="primary" id="text-0"></path></svg></g></svg></g><g transform="matrix(1,0,0,1,60.144000000000005,36.237800807874585)"><svg viewBox="0 0 163.856 9.072048849321394" height="9.072048849321394" width="163.856"><g transform="matrix(1,0,0,1,0,0)"><svg width="163.856" viewBox="3.61 -39.11 951.5 52.68" height="9.072048849321394" data-palette-color="#f9cc0b"><path d="M32.35-6.3L32.35-3.44Q30.98-2.25 29.37-1.48 27.76-0.71 26.12-0.27 24.49 0.17 22.99 0.33 21.48 0.49 20.34 0.49L20.34 0.49Q16.8 0.49 13.75-0.77 10.69-2.03 8.44-4.32 6.18-6.62 4.9-9.85 3.61-13.09 3.61-17.07L3.61-17.07Q3.61-20.04 4.35-22.63 5.08-25.22 6.4-27.34 7.71-29.47 9.52-31.13 11.33-32.79 13.5-33.92 15.67-35.06 18.12-35.66 20.56-36.25 23.12-36.25L23.12-36.25Q24.8-36.25 27.17-35.95 29.54-35.64 32.25-34.84L32.25-34.84 31.42-30.59 30.93-30.35Q28.25-31.57 25.94-32.02 23.63-32.47 22.02-32.47L22.02-32.47Q19.09-32.47 16.63-31.34 14.16-30.2 12.38-28.23 10.6-26.27 9.59-23.66 8.59-21.04 8.59-18.09L8.59-18.09Q8.59-15.26 9.48-12.61 10.38-9.96 12.11-7.92 13.84-5.88 16.38-4.65 18.92-3.42 22.22-3.42L22.22-3.42Q23.17-3.42 24.32-3.54 25.46-3.66 26.76-3.99 28.05-4.32 29.47-4.87 30.88-5.42 32.35-6.3L32.35-6.3ZM49.27 0.49L49.27 0.49Q46.38 0.49 44.14-0.54 41.89-1.56 40.34-3.3 38.79-5.03 37.97-7.34 37.16-9.64 37.16-12.21L37.16-12.21Q37.16-15.14 38.19-17.71 39.23-20.29 41.07-22.22 42.92-24.15 45.46-25.26 48-26.37 50.97-26.37L50.97-26.37Q53.88-26.37 56.15-25.33 58.42-24.29 59.97-22.53 61.52-20.78 62.33-18.47 63.13-16.16 63.13-13.62L63.13-13.62Q63.13-10.67 62.08-8.09 61.03-5.52 59.18-3.61 57.32-1.71 54.78-0.61 52.24 0.49 49.27 0.49ZM50.29-3.22L50.29-3.22Q52.07-3.22 53.53-3.94 54.98-4.66 56.02-5.91 57.05-7.15 57.63-8.85 58.2-10.55 58.2-12.5L58.2-12.5Q58.2-14.43 57.64-16.25 57.08-18.07 56.02-19.49 54.95-20.92 53.42-21.79 51.88-22.66 49.95-22.66L49.95-22.66Q48.17-22.66 46.71-21.94 45.26-21.22 44.22-19.96 43.19-18.7 42.61-16.99 42.04-15.28 42.04-13.33L42.04-13.33Q42.04-11.4 42.6-9.58 43.16-7.76 44.22-6.35 45.29-4.93 46.81-4.08 48.34-3.22 50.29-3.22ZM70.11 0L70.11-25.88 73.73-25.88 74.46-21.39Q75.31-22.19 76.41-23.07 77.51-23.95 78.79-24.68 80.07-25.42 81.51-25.89 82.95-26.37 84.47-26.37L84.47-26.37Q86.25-26.37 87.68-25.68 89.11-25 90.12-23.77 91.13-22.53 91.68-20.84 92.23-19.14 92.23-17.14L92.23-17.14 92.23 0 87.59 0 87.59-16.7Q87.59-18.12 87.19-19.2 86.79-20.29 86.08-21.01 85.37-21.73 84.39-22.09 83.42-22.46 82.27-22.46L82.27-22.46Q80.24-22.46 78.44-21.39 76.63-20.31 74.75-18.55L74.75-18.55 74.75 0 70.11 0ZM102.85-6.49L102.85-22.17 97.62-22.17 98.01-24.56Q99.92-24.95 101.07-25.55 102.21-26.15 102.96-27.05 103.7-27.95 104.2-29.24 104.7-30.52 105.34-32.3L105.34-32.3 107.49-32.3 107.49-25.88 116.86-25.88 115.89-22.17 107.49-22.17 107.49-7.71Q107.49-6.54 107.84-5.73 108.2-4.91 108.83-4.39 109.47-3.88 110.37-3.65 111.27-3.42 112.37-3.42L112.37-3.42Q113.49-3.42 114.6-3.63 115.72-3.83 116.72-4.2L116.72-4.2 116.72-1.56Q115.18-0.56 113.48-0.04 111.78 0.49 110.03 0.49L110.03 0.49Q108.39 0.49 107.07 0.02 105.75-0.44 104.81-1.32 103.87-2.2 103.36-3.5 102.85-4.81 102.85-6.49L102.85-6.49ZM123.82 0L123.82-25.88 128.46-25.88 128.46 0 123.82 0ZM126.16-31.49L126.16-31.49Q125.55-31.49 125.01-31.71 124.48-31.93 124.09-32.32 123.7-32.71 123.48-33.24 123.26-33.76 123.26-34.4L123.26-34.4Q123.26-35.03 123.5-35.6 123.74-36.16 124.15-36.57 124.55-36.99 125.1-37.22 125.65-37.45 126.26-37.45L126.26-37.45Q126.85-37.45 127.37-37.22 127.9-36.99 128.29-36.57 128.68-36.16 128.9-35.61 129.12-35.06 129.12-34.45L129.12-34.45Q129.12-33.79 128.87-33.24 128.63-32.69 128.22-32.31 127.82-31.93 127.28-31.71 126.75-31.49 126.16-31.49ZM137.12 0L137.12-25.88 140.73-25.88 141.47-21.39Q142.32-22.19 143.42-23.07 144.52-23.95 145.8-24.68 147.08-25.42 148.52-25.89 149.96-26.37 151.48-26.37L151.48-26.37Q153.26-26.37 154.69-25.68 156.12-25 157.13-23.77 158.14-22.53 158.69-20.84 159.24-19.14 159.24-17.14L159.24-17.14 159.24 0 154.6 0 154.6-16.7Q154.6-18.12 154.2-19.2 153.8-20.29 153.09-21.01 152.38-21.73 151.4-22.09 150.43-22.46 149.28-22.46L149.28-22.46Q147.25-22.46 145.45-21.39 143.64-20.31 141.76-18.55L141.76-18.55 141.76 0 137.12 0ZM167.83-8.69L167.83-25.88 172.47-25.88 172.47-9.47Q172.47-8.13 172.85-7.02 173.23-5.91 173.9-5.1 174.57-4.3 175.51-3.86 176.45-3.42 177.6-3.42L177.6-3.42Q178.6-3.42 179.56-3.76 180.53-4.1 181.42-4.65 182.31-5.2 183.1-5.92 183.9-6.64 184.58-7.42L184.58-7.42 184.58-25.88 189.22-25.88 189.22 0 185.61 0 184.82-4.44Q183.92-3.61 182.9-2.75 181.87-1.88 180.71-1.16 179.55-0.44 178.26 0.02 176.96 0.49 175.55 0.49L175.55 0.49Q173.89 0.49 172.48-0.17 171.08-0.83 170.04-2.04 169-3.25 168.42-4.94 167.83-6.64 167.83-8.69L167.83-8.69ZM197.79 0L197.79-25.88 202.42-25.88 202.42 0 197.79 0ZM200.13-31.49L200.13-31.49Q199.52-31.49 198.98-31.71 198.44-31.93 198.05-32.32 197.66-32.71 197.44-33.24 197.22-33.76 197.22-34.4L197.22-34.4Q197.22-35.03 197.47-35.6 197.71-36.16 198.11-36.57 198.52-36.99 199.07-37.22 199.62-37.45 200.23-37.45L200.23-37.45Q200.81-37.45 201.34-37.22 201.86-36.99 202.25-36.57 202.64-36.16 202.86-35.61 203.08-35.06 203.08-34.45L203.08-34.45Q203.08-33.79 202.84-33.24 202.59-32.69 202.19-32.31 201.79-31.93 201.25-31.71 200.71-31.49 200.13-31.49ZM211.09 0L211.09-25.88 214.7-25.88 215.43-21.39Q216.29-22.19 217.39-23.07 218.49-23.95 219.77-24.68 221.05-25.42 222.49-25.89 223.93-26.37 225.44-26.37L225.44-26.37Q227.23-26.37 228.65-25.68 230.08-25 231.1-23.77 232.11-22.53 232.66-20.84 233.21-19.14 233.21-17.14L233.21-17.14 233.21 0 228.57 0 228.57-16.7Q228.57-18.12 228.17-19.2 227.76-20.29 227.06-21.01 226.35-21.73 225.37-22.09 224.39-22.46 223.25-22.46L223.25-22.46Q221.22-22.46 219.41-21.39 217.61-20.31 215.73-18.55L215.73-18.55 215.73 0 211.09 0ZM254.62 1.46L248.59 1.46Q247.95 1.78 247.23 2.25 246.51 2.71 245.9 3.28 245.29 3.86 244.87 4.55 244.46 5.25 244.46 6.01L244.46 6.01Q244.46 6.79 244.94 7.48 245.41 8.18 246.33 8.69 247.24 9.2 248.59 9.51 249.93 9.81 251.66 9.81L251.66 9.81Q253.64 9.81 255.2 9.42 256.76 9.03 257.84 8.35 258.91 7.67 259.47 6.77 260.04 5.88 260.04 4.88L260.04 4.88Q260.04 3.98 259.6 3.33 259.16 2.69 258.41 2.27 257.67 1.86 256.68 1.66 255.69 1.46 254.62 1.46L254.62 1.46ZM245.24 0.98L245.24 0.98Q244.48 0.73 243.83 0.37 243.17 0 242.68-0.45 242.19-0.9 241.91-1.48 241.63-2.05 241.63-2.71L241.63-2.71Q241.63-3.52 242.03-4.24 242.43-4.96 243.08-5.63 243.73-6.3 244.55-6.9 245.36-7.5 246.22-8.06L246.22-8.06Q243.51-9.38 242.25-11.52 240.99-13.67 240.99-16.19L240.99-16.19Q240.99-17.75 241.44-19.12 241.9-20.48 242.7-21.62 243.51-22.75 244.58-23.63 245.66-24.51 246.9-25.12 248.15-25.73 249.5-26.05 250.86-26.37 252.2-26.37L252.2-26.37Q253.81-26.37 255.32-25.95 256.84-25.54 257.86-24.88L257.86-24.88Q258.25-25.1 258.83-25.29 259.4-25.49 260.04-25.61 260.67-25.73 261.32-25.81 261.96-25.88 262.53-25.88L262.53-25.88 266.92-25.88 265.94-22.22 260.18-22.22Q260.35-22.12 260.68-21.67 261.01-21.22 261.34-20.5 261.67-19.78 261.93-18.82 262.18-17.87 262.18-16.8L262.18-16.8Q262.18-14.82 261.24-13.07 260.3-11.33 258.78-10.03 257.25-8.74 255.29-7.98 253.32-7.23 251.27-7.23L251.27-7.23Q250.73-7.23 250.2-7.28 249.66-7.32 249.05-7.4L249.05-7.4Q248.61-7.13 248.11-6.79 247.61-6.45 247.21-6.04 246.8-5.64 246.54-5.19 246.27-4.74 246.27-4.25L246.27-4.25Q246.27-3.47 246.99-2.98 247.71-2.49 248.95-2.49L248.95-2.49 255.86-2.49Q257.62-2.49 259.18-2.04 260.74-1.59 261.9-0.74 263.06 0.1 263.75 1.27 264.43 2.44 264.43 3.86L264.43 3.86Q264.43 5.52 263.48 7.24 262.53 8.96 260.72 10.38 258.91 11.79 256.29 12.68 253.66 13.57 250.29 13.57L250.29 13.57Q248.07 13.57 246.16 13.16 244.24 12.74 242.84 11.99 241.43 11.23 240.63 10.16 239.82 9.08 239.82 7.76L239.82 7.76Q239.82 6.96 240.13 6.2 240.43 5.44 240.91 4.79 241.38 4.13 241.98 3.54 242.58 2.95 243.18 2.48 243.78 2 244.33 1.62 244.87 1.25 245.24 0.98ZM245.39-16.94L245.39-16.94Q245.39-15.63 245.85-14.48 246.32-13.33 247.13-12.49 247.95-11.65 249.1-11.17 250.25-10.69 251.61-10.69L251.61-10.69Q252.91-10.69 254.03-11.13 255.15-11.57 256-12.35 256.84-13.13 257.31-14.25 257.79-15.36 257.79-16.72L257.79-16.72Q257.79-18.04 257.33-19.18 256.86-20.31 256.03-21.13 255.2-21.95 254.05-22.42 252.91-22.9 251.54-22.9L251.54-22.9Q250.25-22.9 249.14-22.47 248.02-22.05 247.18-21.28 246.34-20.51 245.86-19.4 245.39-18.29 245.39-16.94ZM293.5-3.3L293.5-3.3Q295.11-3.3 296.48-3.72 297.85-4.15 298.83-4.94 299.8-5.74 300.35-6.84 300.9-7.93 300.9-9.28L300.9-9.28Q300.9-10.86 300.16-11.96 299.41-13.06 298.2-13.89 296.99-14.72 295.43-15.37 293.87-16.02 292.26-16.69 290.65-17.36 289.08-18.14 287.52-18.92 286.31-20.04 285.1-21.17 284.36-22.69 283.62-24.22 283.62-26.39L283.62-26.39Q283.62-28.69 284.49-30.52 285.37-32.35 286.95-33.63 288.52-34.91 290.68-35.58 292.84-36.25 295.43-36.25L295.43-36.25Q297.02-36.25 299.41-35.95 301.8-35.64 304.49-34.84L304.49-34.84 303.68-30.59 303.2-30.35Q301.85-30.96 300.58-31.37 299.31-31.79 298.19-32.03 297.07-32.28 296.12-32.37 295.16-32.47 294.45-32.47L294.45-32.47Q293.01-32.47 291.85-32.12 290.7-31.76 289.88-31.09 289.06-30.42 288.61-29.46 288.16-28.49 288.16-27.27L288.16-27.27Q288.16-25.63 288.9-24.49 289.65-23.34 290.88-22.46 292.11-21.58 293.67-20.9 295.24-20.21 296.86-19.53 298.48-18.85 300.05-18.07 301.61-17.29 302.84-16.25 304.07-15.21 304.82-13.79 305.56-12.38 305.56-10.4L305.56-10.4Q305.56-8.23 304.62-6.26 303.68-4.3 301.99-2.8 300.29-1.29 297.91-0.4 295.53 0.49 292.65 0.49L292.65 0.49Q291.43 0.49 290.1 0.32 288.77 0.15 287.42-0.16 286.08-0.46 284.77-0.9 283.47-1.34 282.3-1.88L282.3-1.88 283.13-6.15 283.62-6.4Q286.11-4.96 288.66-4.13 291.21-3.3 293.5-3.3ZM333.88-4.83L333.88-2.2Q332.95-1.54 331.74-1.04 330.54-0.54 329.24-0.2 327.95 0.15 326.64 0.32 325.34 0.49 324.21 0.49L324.21 0.49Q321.72 0.49 319.48-0.34 317.23-1.17 315.55-2.78 313.86-4.39 312.86-6.77 311.86-9.16 311.86-12.26L311.86-12.26Q311.86-15.45 312.92-18.07 313.98-20.68 315.77-22.52 317.55-24.37 319.88-25.37 322.21-26.37 324.77-26.37L324.77-26.37Q326.85-26.37 328.64-25.67 330.44-24.98 331.77-23.58 333.1-22.19 333.86-20.1 334.61-18.02 334.61-15.23L334.61-15.23Q334.61-14.67 334.56-13.89 334.52-13.11 334.37-12.26L334.37-12.26 316.69-12.26Q316.69-10.16 317.44-8.51 318.18-6.86 319.54-5.73 320.89-4.59 322.77-4 324.65-3.42 326.92-3.42L326.92-3.42Q327.48-3.42 328.29-3.47 329.1-3.52 330.02-3.66 330.95-3.81 331.95-4.09 332.95-4.37 333.88-4.83L333.88-4.83ZM316.69-15.14L330.22-15.14Q330.22-16.97 329.71-18.37 329.19-19.78 328.31-20.73 327.44-21.68 326.28-22.17 325.12-22.66 323.8-22.66L323.8-22.66Q322.33-22.66 321.04-22.06 319.75-21.46 318.78-20.43 317.82-19.41 317.26-18.04 316.69-16.67 316.69-15.14L316.69-15.14ZM341.84 0L341.84-25.88 345.45-25.88 346.18-18.12Q346.5-18.73 346.85-19.37 347.21-20.02 347.56-20.63 347.92-21.24 348.26-21.78 348.6-22.31 348.87-22.71L348.87-22.71Q349.41-23.46 350.08-24.13 350.75-24.8 351.53-25.31 352.31-25.81 353.19-26.09 354.07-26.37 355.07-26.37L355.07-26.37Q355.78-26.37 356.41-26.21 357.05-26.05 357.46-25.68L357.46-25.68 356.97-21.34Q356.53-21.46 356.11-21.5 355.68-21.53 355.27-21.53L355.27-21.53Q353.53-21.53 352.25-20.97 350.97-20.41 349.96-19.45 348.94-18.48 348.12-17.19 347.31-15.89 346.48-14.4L346.48-14.4 346.48 0 341.84 0ZM370.06 0L360.39-25.88 365.61-25.88 371.38-7.96 372.45-3.71 372.94-3.71 373.96-7.96 379.77-25.88 384.56-25.88 374.84 0 370.06 0ZM390.29 0L390.29-25.88 394.93-25.88 394.93 0 390.29 0ZM392.64-31.49L392.64-31.49Q392.03-31.49 391.49-31.71 390.95-31.93 390.56-32.32 390.17-32.71 389.95-33.24 389.73-33.76 389.73-34.4L389.73-34.4Q389.73-35.03 389.98-35.6 390.22-36.16 390.62-36.57 391.03-36.99 391.58-37.22 392.13-37.45 392.74-37.45L392.74-37.45Q393.32-37.45 393.85-37.22 394.37-36.99 394.76-36.57 395.15-36.16 395.37-35.61 395.59-35.06 395.59-34.45L395.59-34.45Q395.59-33.79 395.35-33.24 395.1-32.69 394.7-32.31 394.3-31.93 393.76-31.71 393.22-31.49 392.64-31.49ZM421.71-4.83L421.71-2.2Q420.2-1.03 418.11-0.27 416.02 0.49 413.56 0.49L413.56 0.49Q410.92 0.49 408.79-0.43 406.65-1.34 405.14-2.98 403.62-4.61 402.8-6.9 401.99-9.18 401.99-11.89L401.99-11.89Q401.99-15.04 403.06-17.7 404.13-20.36 406-22.29 407.87-24.22 410.41-25.29 412.95-26.37 415.85-26.37L415.85-26.37Q416.54-26.37 417.33-26.31 418.12-26.25 418.91-26.1 419.69-25.95 420.42-25.74 421.15-25.54 421.71-25.24L421.71-25.24 420.74-21.19 420.2-20.95Q419.71-21.31 419.09-21.63 418.47-21.95 417.77-22.17 417.07-22.39 416.33-22.52 415.59-22.66 414.88-22.66L414.88-22.66Q413.24-22.66 411.79-22.01 410.34-21.36 409.24-20.13 408.14-18.9 407.5-17.1 406.87-15.31 406.87-13.01L406.87-13.01Q406.87-10.67 407.54-8.89 408.21-7.1 409.38-5.88 410.56-4.66 412.17-4.04 413.78-3.42 415.66-3.42L415.66-3.42Q416.78-3.42 418.37-3.7 419.96-3.98 421.71-4.83L421.71-4.83ZM449.1-4.83L449.1-2.2Q448.18-1.54 446.97-1.04 445.76-0.54 444.46-0.2 443.17 0.15 441.86 0.32 440.56 0.49 439.44 0.49L439.44 0.49Q436.94 0.49 434.7-0.34 432.45-1.17 430.77-2.78 429.08-4.39 428.08-6.77 427.08-9.16 427.08-12.26L427.08-12.26Q427.08-15.45 428.14-18.07 429.21-20.68 430.99-22.52 432.77-24.37 435.1-25.37 437.43-26.37 440-26.37L440-26.37Q442.07-26.37 443.87-25.67 445.66-24.98 446.99-23.58 448.32-22.19 449.08-20.1 449.84-18.02 449.84-15.23L449.84-15.23Q449.84-14.67 449.79-13.89 449.74-13.11 449.59-12.26L449.59-12.26 431.92-12.26Q431.92-10.16 432.66-8.51 433.4-6.86 434.76-5.73 436.11-4.59 437.99-4 439.87-3.42 442.15-3.42L442.15-3.42Q442.71-3.42 443.51-3.47 444.32-3.52 445.25-3.66 446.17-3.81 447.17-4.09 448.18-4.37 449.1-4.83L449.1-4.83ZM431.92-15.14L445.44-15.14Q445.44-16.97 444.93-18.37 444.42-19.78 443.54-20.73 442.66-21.68 441.5-22.17 440.34-22.66 439.02-22.66L439.02-22.66Q437.56-22.66 436.26-22.06 434.97-21.46 434-20.43 433.04-19.41 432.48-18.04 431.92-16.67 431.92-15.14L431.92-15.14ZM481.74-31.98L481.74 0 476.95 0 476.95-31.98 465.09-31.98 465.82-35.77 494.09-35.77 493.36-31.98 481.74-31.98ZM499.68 0L499.68-39.11 504.32-39.11 504.32-21.68Q505.2-22.46 506.27-23.29 507.35-24.12 508.59-24.8 509.84-25.49 511.2-25.93 512.57-26.37 514.04-26.37L514.04-26.37Q515.79-26.37 517.22-25.7 518.65-25.02 519.68-23.82 520.7-22.61 521.25-20.91 521.8-19.21 521.8-17.14L521.8-17.14 521.8 0 517.16 0 517.16-16.75Q517.16-18.16 516.76-19.24 516.36-20.31 515.66-21.03 514.96-21.75 513.99-22.11 513.01-22.46 511.89-22.46L511.89-22.46Q509.84-22.46 508.01-21.39 506.18-20.31 504.32-18.55L504.32-18.55 504.32 0 499.68 0ZM530.39 0L530.39-25.88 534.01-25.88 534.74-18.12Q535.05-18.73 535.41-19.37 535.76-20.02 536.12-20.63 536.47-21.24 536.81-21.78 537.15-22.31 537.42-22.71L537.42-22.71Q537.96-23.46 538.63-24.13 539.3-24.8 540.08-25.31 540.87-25.81 541.74-26.09 542.62-26.37 543.62-26.37L543.62-26.37Q544.33-26.37 544.97-26.21 545.6-26.05 546.02-25.68L546.02-25.68 545.53-21.34Q545.09-21.46 544.66-21.5 544.23-21.53 543.82-21.53L543.82-21.53Q542.09-21.53 540.8-20.97 539.52-20.41 538.51-19.45 537.5-18.48 536.68-17.19 535.86-15.89 535.03-14.4L535.03-14.4 535.03 0 530.39 0ZM561.27 0.49L561.27 0.49Q558.39 0.49 556.15-0.54 553.9-1.56 552.35-3.3 550.8-5.03 549.98-7.34 549.16-9.64 549.16-12.21L549.16-12.21Q549.16-15.14 550.2-17.71 551.24-20.29 553.08-22.22 554.93-24.15 557.46-25.26 560-26.37 562.98-26.37L562.98-26.37Q565.89-26.37 568.16-25.33 570.43-24.29 571.98-22.53 573.53-20.78 574.33-18.47 575.14-16.16 575.14-13.62L575.14-13.62Q575.14-10.67 574.09-8.09 573.04-5.52 571.19-3.61 569.33-1.71 566.79-0.61 564.25 0.49 561.27 0.49ZM562.3-3.22L562.3-3.22Q564.08-3.22 565.53-3.94 566.99-4.66 568.02-5.91 569.06-7.15 569.63-8.85 570.21-10.55 570.21-12.5L570.21-12.5Q570.21-14.43 569.65-16.25 569.09-18.07 568.02-19.49 566.96-20.92 565.42-21.79 563.89-22.66 561.96-22.66L561.96-22.66Q560.17-22.66 558.72-21.94 557.27-21.22 556.23-19.96 555.19-18.7 554.62-16.99 554.05-15.28 554.05-13.33L554.05-13.33Q554.05-11.4 554.61-9.58 555.17-7.76 556.23-6.35 557.29-4.93 558.82-4.08 560.35-3.22 562.3-3.22ZM582.12-8.69L582.12-25.88 586.76-25.88 586.76-9.47Q586.76-8.13 587.14-7.02 587.52-5.91 588.19-5.1 588.86-4.3 589.8-3.86 590.74-3.42 591.89-3.42L591.89-3.42Q592.89-3.42 593.85-3.76 594.82-4.1 595.71-4.65 596.6-5.2 597.39-5.92 598.18-6.64 598.87-7.42L598.87-7.42 598.87-25.88 603.51-25.88 603.51 0 599.89 0 599.11-4.44Q598.21-3.61 597.18-2.75 596.16-1.88 595-1.16 593.84-0.44 592.55 0.02 591.25 0.49 589.84 0.49L589.84 0.49Q588.17 0.49 586.77-0.17 585.37-0.83 584.33-2.04 583.29-3.25 582.71-4.94 582.12-6.64 582.12-8.69L582.12-8.69ZM624.92 1.46L618.89 1.46Q618.25 1.78 617.53 2.25 616.81 2.71 616.2 3.28 615.59 3.86 615.17 4.55 614.76 5.25 614.76 6.01L614.76 6.01Q614.76 6.79 615.24 7.48 615.71 8.18 616.63 8.69 617.54 9.2 618.89 9.51 620.23 9.81 621.96 9.81L621.96 9.81Q623.94 9.81 625.5 9.42 627.06 9.03 628.14 8.35 629.21 7.67 629.77 6.77 630.34 5.88 630.34 4.88L630.34 4.88Q630.34 3.98 629.9 3.33 629.46 2.69 628.71 2.27 627.97 1.86 626.98 1.66 625.99 1.46 624.92 1.46L624.92 1.46ZM615.54 0.98L615.54 0.98Q614.78 0.73 614.12 0.37 613.47 0 612.98-0.45 612.49-0.9 612.21-1.48 611.93-2.05 611.93-2.71L611.93-2.71Q611.93-3.52 612.33-4.24 612.73-4.96 613.38-5.63 614.03-6.3 614.84-6.9 615.66-7.5 616.52-8.06L616.52-8.06Q613.81-9.38 612.55-11.52 611.29-13.67 611.29-16.19L611.29-16.19Q611.29-17.75 611.74-19.12 612.2-20.48 613-21.62 613.81-22.75 614.88-23.63 615.96-24.51 617.2-25.12 618.45-25.73 619.8-26.05 621.16-26.37 622.5-26.37L622.5-26.37Q624.11-26.37 625.62-25.95 627.14-25.54 628.16-24.88L628.16-24.88Q628.55-25.1 629.13-25.29 629.7-25.49 630.34-25.61 630.97-25.73 631.62-25.81 632.26-25.88 632.83-25.88L632.83-25.88 637.22-25.88 636.24-22.22 630.48-22.22Q630.65-22.12 630.98-21.67 631.31-21.22 631.64-20.5 631.97-19.78 632.23-18.82 632.48-17.87 632.48-16.8L632.48-16.8Q632.48-14.82 631.54-13.07 630.6-11.33 629.08-10.03 627.55-8.74 625.59-7.98 623.62-7.23 621.57-7.23L621.57-7.23Q621.03-7.23 620.5-7.28 619.96-7.32 619.35-7.4L619.35-7.4Q618.91-7.13 618.41-6.79 617.91-6.45 617.51-6.04 617.1-5.64 616.83-5.19 616.57-4.74 616.57-4.25L616.57-4.25Q616.57-3.47 617.29-2.98 618.01-2.49 619.25-2.49L619.25-2.49 626.16-2.49Q627.92-2.49 629.48-2.04 631.04-1.59 632.2-0.74 633.36 0.1 634.05 1.27 634.73 2.44 634.73 3.86L634.73 3.86Q634.73 5.52 633.78 7.24 632.83 8.96 631.02 10.38 629.21 11.79 626.59 12.68 623.96 13.57 620.59 13.57L620.59 13.57Q618.37 13.57 616.46 13.16 614.54 12.74 613.14 11.99 611.73 11.23 610.93 10.16 610.12 9.08 610.12 7.76L610.12 7.76Q610.12 6.96 610.43 6.2 610.73 5.44 611.21 4.79 611.68 4.13 612.28 3.54 612.88 2.95 613.48 2.48 614.08 2 614.63 1.62 615.17 1.25 615.54 0.98ZM615.69-16.94L615.69-16.94Q615.69-15.63 616.15-14.48 616.61-13.33 617.43-12.49 618.25-11.65 619.4-11.17 620.55-10.69 621.91-10.69L621.91-10.69Q623.21-10.69 624.33-11.13 625.45-11.57 626.29-12.35 627.14-13.13 627.61-14.25 628.09-15.36 628.09-16.72L628.09-16.72Q628.09-18.04 627.63-19.18 627.16-20.31 626.33-21.13 625.5-21.95 624.35-22.42 623.21-22.9 621.84-22.9L621.84-22.9Q620.55-22.9 619.43-22.47 618.32-22.05 617.48-21.28 616.64-20.51 616.16-19.4 615.69-18.29 615.69-16.94ZM642.25 0L642.25-39.11 646.89-39.11 646.89-21.68Q647.76-22.46 648.84-23.29 649.91-24.12 651.16-24.8 652.4-25.49 653.77-25.93 655.14-26.37 656.6-26.37L656.6-26.37Q658.36-26.37 659.79-25.7 661.22-25.02 662.24-23.82 663.27-22.61 663.82-20.91 664.37-19.21 664.37-17.14L664.37-17.14 664.37 0 659.73 0 659.73-16.75Q659.73-18.16 659.32-19.24 658.92-20.31 658.23-21.03 657.53-21.75 656.55-22.11 655.58-22.46 654.45-22.46L654.45-22.46Q652.4-22.46 650.57-21.39 648.74-20.31 646.89-18.55L646.89-18.55 646.89 0 642.25 0ZM697.64-31.98L697.64 0 692.85 0 692.85-31.98 680.99-31.98 681.72-35.77 709.99-35.77 709.26-31.98 697.64-31.98ZM731.5-4.83L731.5-2.2Q730.57-1.54 729.36-1.04 728.15-0.54 726.86-0.2 725.56 0.15 724.26 0.32 722.95 0.49 721.83 0.49L721.83 0.49Q719.34 0.49 717.09-0.34 714.85-1.17 713.16-2.78 711.48-4.39 710.48-6.77 709.48-9.16 709.48-12.26L709.48-12.26Q709.48-15.45 710.54-18.07 711.6-20.68 713.38-22.52 715.16-24.37 717.5-25.37 719.83-26.37 722.39-26.37L722.39-26.37Q724.47-26.37 726.26-25.67 728.05-24.98 729.39-23.58 730.72-22.19 731.47-20.1 732.23-18.02 732.23-15.23L732.23-15.23Q732.23-14.67 732.18-13.89 732.13-13.11 731.99-12.26L731.99-12.26 714.31-12.26Q714.31-10.16 715.05-8.51 715.8-6.86 717.15-5.73 718.51-4.59 720.39-4 722.27-3.42 724.54-3.42L724.54-3.42Q725.1-3.42 725.91-3.47 726.71-3.52 727.64-3.66 728.57-3.81 729.57-4.09 730.57-4.37 731.5-4.83L731.5-4.83ZM714.31-15.14L727.84-15.14Q727.84-16.97 727.32-18.37 726.81-19.78 725.93-20.73 725.05-21.68 723.89-22.17 722.73-22.66 721.41-22.66L721.41-22.66Q719.95-22.66 718.66-22.06 717.36-21.46 716.4-20.43 715.43-19.41 714.87-18.04 714.31-16.67 714.31-15.14L714.31-15.14ZM757.57-4.83L757.57-2.2Q756.06-1.03 753.97-0.27 751.88 0.49 749.41 0.49L749.41 0.49Q746.78 0.49 744.64-0.43 742.51-1.34 740.99-2.98 739.48-4.61 738.66-6.9 737.84-9.18 737.84-11.89L737.84-11.89Q737.84-15.04 738.92-17.7 739.99-20.36 741.86-22.29 743.73-24.22 746.27-25.29 748.8-26.37 751.71-26.37L751.71-26.37Q752.39-26.37 753.19-26.31 753.98-26.25 754.76-26.1 755.54-25.95 756.28-25.74 757.01-25.54 757.57-25.24L757.57-25.24 756.59-21.19 756.06-20.95Q755.57-21.31 754.94-21.63 754.32-21.95 753.63-22.17 752.93-22.39 752.19-22.52 751.44-22.66 750.73-22.66L750.73-22.66Q749.1-22.66 747.64-22.01 746.19-21.36 745.09-20.13 743.99-18.9 743.36-17.1 742.73-15.31 742.73-13.01L742.73-13.01Q742.73-10.67 743.4-8.89 744.07-7.1 745.24-5.88 746.41-4.66 748.02-4.04 749.63-3.42 751.51-3.42L751.51-3.42Q752.64-3.42 754.22-3.7 755.81-3.98 757.57-4.83L757.57-4.83ZM764.79 0L764.79-39.11 769.43-39.11 769.43-21.68Q770.31-22.46 771.38-23.29 772.46-24.12 773.7-24.8 774.95-25.49 776.32-25.93 777.68-26.37 779.15-26.37L779.15-26.37Q780.91-26.37 782.33-25.7 783.76-25.02 784.79-23.82 785.81-22.61 786.36-20.91 786.91-19.21 786.91-17.14L786.91-17.14 786.91 0 782.27 0 782.27-16.75Q782.27-18.16 781.87-19.24 781.47-20.31 780.77-21.03 780.08-21.75 779.1-22.11 778.12-22.46 777-22.46L777-22.46Q774.95-22.46 773.12-21.39 771.29-20.31 769.43-18.55L769.43-18.55 769.43 0 764.79 0ZM795.5 0L795.5-25.88 799.12-25.88 799.85-21.39Q800.7-22.19 801.8-23.07 802.9-23.95 804.18-24.68 805.46-25.42 806.9-25.89 808.35-26.37 809.86-26.37L809.86-26.37Q811.64-26.37 813.07-25.68 814.5-25 815.51-23.77 816.52-22.53 817.07-20.84 817.62-19.14 817.62-17.14L817.62-17.14 817.62 0 812.98 0 812.98-16.7Q812.98-18.12 812.58-19.2 812.18-20.29 811.47-21.01 810.76-21.73 809.79-22.09 808.81-22.46 807.66-22.46L807.66-22.46Q805.64-22.46 803.83-21.39 802.02-20.31 800.14-18.55L800.14-18.55 800.14 0 795.5 0ZM836.71 0.49L836.71 0.49Q833.83 0.49 831.59-0.54 829.34-1.56 827.79-3.3 826.24-5.03 825.42-7.34 824.6-9.64 824.6-12.21L824.6-12.21Q824.6-15.14 825.64-17.71 826.68-20.29 828.52-22.22 830.36-24.15 832.9-25.26 835.44-26.37 838.42-26.37L838.42-26.37Q841.33-26.37 843.6-25.33 845.87-24.29 847.42-22.53 848.97-20.78 849.77-18.47 850.58-16.16 850.58-13.62L850.58-13.62Q850.58-10.67 849.53-8.09 848.48-5.52 846.62-3.61 844.77-1.71 842.23-0.61 839.69 0.49 836.71 0.49ZM837.74-3.22L837.74-3.22Q839.52-3.22 840.97-3.94 842.42-4.66 843.46-5.91 844.5-7.15 845.07-8.85 845.65-10.55 845.65-12.5L845.65-12.5Q845.65-14.43 845.09-16.25 844.52-18.07 843.46-19.49 842.4-20.92 840.86-21.79 839.32-22.66 837.4-22.66L837.4-22.66Q835.61-22.66 834.16-21.94 832.71-21.22 831.67-19.96 830.63-18.7 830.06-16.99 829.49-15.28 829.49-13.33L829.49-13.33Q829.49-11.4 830.05-9.58 830.61-7.76 831.67-6.35 832.73-4.93 834.26-4.08 835.78-3.22 837.74-3.22ZM857.56 0L857.56-39.11 862.2-39.11 862.2 0 857.56 0ZM881.29 0.49L881.29 0.49Q878.41 0.49 876.16-0.54 873.91-1.56 872.36-3.3 870.81-5.03 870-7.34 869.18-9.64 869.18-12.21L869.18-12.21Q869.18-15.14 870.22-17.71 871.25-20.29 873.1-22.22 874.94-24.15 877.48-25.26 880.02-26.37 883-26.37L883-26.37Q885.9-26.37 888.17-25.33 890.44-24.29 891.99-22.53 893.54-20.78 894.35-18.47 895.15-16.16 895.15-13.62L895.15-13.62Q895.15-10.67 894.1-8.09 893.05-5.52 891.2-3.61 889.34-1.71 886.8-0.61 884.27 0.49 881.29 0.49ZM882.31-3.22L882.31-3.22Q884.09-3.22 885.55-3.94 887-4.66 888.04-5.91 889.08-7.15 889.65-8.85 890.22-10.55 890.22-12.5L890.22-12.5Q890.22-14.43 889.66-16.25 889.1-18.07 888.04-19.49 886.98-20.92 885.44-21.79 883.9-22.66 881.97-22.66L881.97-22.66Q880.19-22.66 878.74-21.94 877.28-21.22 876.25-19.96 875.21-18.7 874.63-16.99 874.06-15.28 874.06-13.33L874.06-13.33Q874.06-11.4 874.62-9.58 875.18-7.76 876.25-6.35 877.31-4.93 878.83-4.08 880.36-3.22 882.31-3.22ZM914.95 1.46L908.92 1.46Q908.29 1.78 907.57 2.25 906.85 2.71 906.24 3.28 905.63 3.86 905.21 4.55 904.8 5.25 904.8 6.01L904.8 6.01Q904.8 6.79 905.27 7.48 905.75 8.18 906.66 8.69 907.58 9.2 908.92 9.51 910.26 9.81 912 9.81L912 9.81Q913.97 9.81 915.54 9.42 917.1 9.03 918.17 8.35 919.25 7.67 919.81 6.77 920.37 5.88 920.37 4.88L920.37 4.88Q920.37 3.98 919.93 3.33 919.49 2.69 918.75 2.27 918 1.86 917.01 1.66 916.03 1.46 914.95 1.46L914.95 1.46ZM905.58 0.98L905.58 0.98Q904.82 0.73 904.16 0.37 903.5 0 903.01-0.45 902.52-0.9 902.24-1.48 901.96-2.05 901.96-2.71L901.96-2.71Q901.96-3.52 902.37-4.24 902.77-4.96 903.42-5.63 904.06-6.3 904.88-6.9 905.7-7.5 906.55-8.06L906.55-8.06Q903.84-9.38 902.59-11.52 901.33-13.67 901.33-16.19L901.33-16.19Q901.33-17.75 901.78-19.12 902.23-20.48 903.04-21.62 903.84-22.75 904.92-23.63 905.99-24.51 907.24-25.12 908.48-25.73 909.84-26.05 911.19-26.37 912.53-26.37L912.53-26.37Q914.15-26.37 915.66-25.95 917.17-25.54 918.2-24.88L918.2-24.88Q918.59-25.1 919.16-25.29 919.74-25.49 920.37-25.61 921.01-25.73 921.65-25.81 922.3-25.88 922.86-25.88L922.86-25.88 927.26-25.88 926.28-22.22 920.52-22.22Q920.69-22.12 921.02-21.67 921.35-21.22 921.68-20.5 922.01-19.78 922.26-18.82 922.52-17.87 922.52-16.8L922.52-16.8Q922.52-14.82 921.58-13.07 920.64-11.33 919.11-10.03 917.59-8.74 915.62-7.98 913.66-7.23 911.61-7.23L911.61-7.23Q911.07-7.23 910.53-7.28 910-7.32 909.39-7.4L909.39-7.4Q908.95-7.13 908.45-6.79 907.94-6.45 907.54-6.04 907.14-5.64 906.87-5.19 906.6-4.74 906.6-4.25L906.6-4.25Q906.6-3.47 907.32-2.98 908.04-2.49 909.29-2.49L909.29-2.49 916.2-2.49Q917.95-2.49 919.52-2.04 921.08-1.59 922.24-0.74 923.4 0.1 924.08 1.27 924.77 2.44 924.77 3.86L924.77 3.86Q924.77 5.52 923.81 7.24 922.86 8.96 921.06 10.38 919.25 11.79 916.62 12.68 914 13.57 910.63 13.57L910.63 13.57Q908.41 13.57 906.49 13.16 904.58 12.74 903.17 11.99 901.77 11.23 900.96 10.16 900.16 9.08 900.16 7.76L900.16 7.76Q900.16 6.96 900.46 6.2 900.77 5.44 901.24 4.79 901.72 4.13 902.32 3.54 902.92 2.95 903.51 2.48 904.11 2 904.66 1.62 905.21 1.25 905.58 0.98ZM905.72-16.94L905.72-16.94Q905.72-15.63 906.19-14.48 906.65-13.33 907.47-12.49 908.29-11.65 909.43-11.17 910.58-10.69 911.95-10.69L911.95-10.69Q913.24-10.69 914.37-11.13 915.49-11.57 916.33-12.35 917.17-13.13 917.65-14.25 918.13-15.36 918.13-16.72L918.13-16.72Q918.13-18.04 917.66-19.18 917.2-20.31 916.37-21.13 915.54-21.95 914.39-22.42 913.24-22.9 911.88-22.9L911.88-22.9Q910.58-22.9 909.47-22.47 908.36-22.05 907.52-21.28 906.68-20.51 906.2-19.4 905.72-18.29 905.72-16.94ZM940.61 0L930.94-25.88 936.16-25.88 941.83-8.4 943-3.66 943.49-3.66 944.66-8.4 950.33-25.88 955.11-25.88 940.56 13.09 936.07 13.09 941.49 0 940.61 0Z" opacity="1" transform="matrix(1,0,0,1,0,0)" fill="#f9cc0b" class="slogan-text-1" data-fill-palette-color="secondary" id="text-1"></path></svg></g></svg></g></svg></g></svg></g><g transform="matrix(1,0,0,1,230.9209943915421,0)"><svg viewBox="0 0 54.650357811516336 54.477844636833034" height="54.477844636833034" width="54.650357811516336"><g><svg xmlns="http://www.w3.org/2000/svg" xmlns:xlink="http://www.w3.org/1999/xlink" version="1.1" x="0" y="0" viewBox="4.857 5 90.285 90" enable-background="new 0 0 100 100" xml:space="preserve" height="54.477844636833034" width="54.650357811516336" class="icon-icon-0" data-fill-palette-color="accent" id="icon-0"><g fill="#f9f9f9" data-fill-palette-color="accent"><g fill="#f9f9f9" data-fill-palette-color="accent"><g fill="#f9f9f9" data-fill-palette-color="accent"><path d="M5.001 49.903c0-6.628 5.373-12.002 12.002-12.002 5.196 0 9.62 3.302 11.29 7.921l0 0.001c3.588 5.015 8.876 8.73 15.022 10.305l0.146 0.037c-0.057 0.043-0.113 0.086-0.168 0.13-2.519 1.98-4.14 5.054-4.14 8.499 0 2.417 0.798 4.652 2.144 6.454l-0.062-0.035c-0.019-0.006-0.038-0.013-0.056-0.02-0.081-0.028-0.163-0.057-0.244-0.086-4.816-1.732-8.987-4.814-12.058-8.789L28.896 95H4.857l0.148-45.008L5.001 49.903zM71.104 17.002c0 6.628 5.373 12.002 12.002 12.002s12.002-5.373 12.002-12.002S89.734 5 83.106 5 71.104 10.373 71.104 17.002zM17.003 5c6.628 0 12.002 5.373 12.002 12.002s-5.373 12.002-12.002 12.002S5.001 23.63 5.001 17.002 10.374 5 17.003 5zM54.241 56.552c-3.765 0.522-6.664 3.754-6.664 7.663 0 4.273 3.464 7.736 7.736 7.736 0.744 0 1.464-0.105 2.145-0.301l0.357-0.145c5.333-1.623 9.956-4.876 13.288-9.179l0 0.157v32.5h24.039l-0.036-45.08c0-6.628-5.373-12.002-12.002-12.002-5.066 0-9.398 3.138-11.16 7.576l-0.064 0.08c-3.978 5.695-10.129 9.761-17.25 10.993L54.241 56.552z" fill="#f9f9f9" data-fill-palette-color="accent"></path></g></g></g></svg></g></svg></g></svg></g></svg></g></svg></g></svg></g><defs></defs></svg><rect width="320" height="360" fill="none" stroke="none" visibility="hidden"></rect></g></svg></g></svg>