<?xml version="1.0" standalone="no"?>
<!DOCTYPE svg PUBLIC "-//W3C//DTD SVG 20010904//EN"
 "http://www.w3.org/TR/2001/REC-SVG-20010904/DTD/svg10.dtd">
<svg version="1.0" xmlns="http://www.w3.org/2000/svg"
 width="500.000000pt" height="500.000000pt" viewBox="0 0 500.000000 500.000000"
 preserveAspectRatio="xMidYMid meet">
<metadata>
Created by potrace 1.16, written by Peter Selinger 2001-2019
</metadata>
<g transform="translate(0.000000,500.000000) scale(0.100000,-0.100000)"
fill="#000000" stroke="none">
<path d="M2395 3797 c-11 -8 -265 -137 -565 -288 -300 -151 -559 -287 -577
-303 -30 -26 -33 -33 -33 -85 0 -50 4 -61 28 -83 15 -14 56 -39 92 -56 36 -17
164 -76 285 -132 121 -56 272 -126 335 -155 63 -29 189 -87 280 -129 233 -108
220 -109 476 35 110 62 336 188 504 282 534 297 500 273 500 357 0 75 -21 94
-180 158 -69 27 -209 84 -312 126 -104 42 -270 109 -370 150 -101 41 -217 88
-258 105 -82 34 -170 41 -205 18z m340 -323 c143 -58 340 -137 438 -177 202
-82 197 -68 57 -144 -47 -25 -211 -117 -365 -203 -154 -87 -310 -173 -346
-193 l-65 -36 -130 60 c-71 34 -151 71 -179 84 -206 96 -413 192 -479 223
l-79 38 359 181 c323 163 528 269 529 272 1 0 118 -47 260 -105z"/>
<path d="M1085 3061 c-10 -47 19 -180 56 -252 59 -118 171 -244 294 -331 240
-171 563 -256 862 -229 67 6 129 14 139 18 15 6 16 1 11 -43 -4 -27 -12 -278
-18 -557 l-12 -508 29 -30 29 -31 129 6 c409 21 674 109 895 297 237 202 376
462 421 784 19 132 24 380 11 525 -18 207 -29 257 -63 296 -27 30 -36 34 -80
34 -44 0 -75 -12 -247 -101 -386 -200 -520 -268 -776 -399 -143 -73 -272 -144
-286 -157 l-27 -24 -78 25 c-228 73 -574 224 -787 345 -140 79 -320 203 -406
281 l-89 80 -7 -29z m2629 -348 c47 -337 -28 -704 -197 -959 -61 -92 -99 -133
-181 -194 -154 -114 -359 -193 -590 -226 -59 -8 -110 -13 -113 -10 -2 2 0 134
6 293 6 159 11 356 11 438 0 83 4 155 8 161 8 13 74 48 512 272 162 83 347
178 410 211 63 33 118 61 121 61 4 0 9 -21 13 -47z"/>
<path d="M980 2424 c0 -45 57 -129 139 -206 94 -88 216 -153 366 -194 91 -25
115 -28 275 -28 150 0 187 4 260 23 113 30 203 66 270 110 l55 36 -150 7
c-391 20 -834 114 -1115 238 -50 22 -93 40 -95 40 -3 0 -5 -12 -5 -26z"/>
<path d="M2168 1924 c-284 -69 -697 -100 -922 -70 -66 8 -122 14 -124 11 -2
-2 19 -28 47 -58 194 -205 620 -221 928 -35 60 36 168 129 184 159 12 24 11
24 -113 -7z"/>
<path d="M2161 1674 c-183 -87 -422 -158 -573 -170 -43 -4 -78 -11 -78 -15 0
-13 81 -56 130 -69 64 -18 197 -15 266 5 94 27 193 85 259 150 55 55 117 146
98 144 -4 0 -51 -21 -102 -45z"/>
<path d="M2285 1514 c-94 -79 -274 -183 -356 -208 -53 -16 -51 -30 5 -40 129
-25 309 78 368 211 25 57 20 67 -17 37z"/>
</g>
</svg>
